<svg width="21" height="21" viewBox="0 0 21 21" fill="none" xmlns="http://www.w3.org/2000/svg">
<g clip-path="url(#clip0_130_35)">
<path d="M16.3169 11.034C16.3081 9.40076 17.037 8.168 18.5122 7.26012C17.6868 6.06297 16.4399 5.40432 14.7934 5.27526C13.2348 5.15065 11.5313 6.19648 10.9078 6.19648C10.2492 6.19648 8.73891 5.31976 7.55347 5.31976C5.10357 5.35981 2.5 7.30018 2.5 11.2477C2.5 12.4137 2.71074 13.6182 3.13223 14.8614C3.69422 16.4947 5.72263 20.5 7.83886 20.4332C8.94527 20.4065 9.72678 19.6366 11.1669 19.6366C12.563 19.6366 13.2875 20.4332 14.5212 20.4332C16.655 20.4021 18.4902 16.7617 19.0259 15.1239C16.1633 13.7577 16.3169 11.1186 16.3169 11.034ZM13.8319 3.72652C15.0305 2.2846 14.9207 0.97174 14.8856 0.5C13.8275 0.562305 12.6026 1.22986 11.9045 2.05318C11.1361 2.93436 10.6839 4.0247 10.7805 5.253C11.9264 5.34201 12.9714 4.74566 13.8319 3.72652Z" fill="black"/>
</g>
<defs>
<clipPath id="clip0_130_35">
<rect width="20" height="20" fill="white" transform="translate(0.5 0.5)"/>
</clipPath>
</defs>
</svg>
