<svg width="162" height="51" viewBox="0 0 162 51" fill="none" xmlns="http://www.w3.org/2000/svg">
<g id="apple-store.svg" clip-path="url(#clip0_1_875)">
<path id="Vector" d="M161.226 0H0.226196V51H161.226V0Z" fill="#1C1B3C"/>
<path id="Vector_2" d="M31.3551 33.7485C30.2297 35.3604 29.0365 36.9333 27.2196 36.9593C25.4028 36.9983 24.8197 35.9323 22.7588 35.9323C20.6843 35.9323 20.047 36.9333 18.325 36.9983C16.5488 37.0633 15.2065 35.2824 14.0676 33.7095C11.749 30.4987 9.9728 24.5841 12.3592 20.6064C13.5388 18.6305 15.654 17.3826 17.9454 17.3436C19.6809 17.3176 21.3351 18.4745 22.4063 18.4745C23.4638 18.4745 25.4706 17.0836 27.5722 17.2916C28.4535 17.3306 30.9212 17.6296 32.5076 19.8654C32.3856 19.9434 29.5653 21.5293 29.5924 24.8181C29.6331 28.7438 33.1855 30.0567 33.2262 30.0697C33.1855 30.1607 32.6567 31.9416 31.3551 33.7485ZM23.613 12.9499C24.6028 11.8709 26.2434 11.052 27.5993 11C27.7756 12.5209 27.1383 14.0548 26.1892 15.1467C25.2536 16.2517 23.7079 17.1096 22.1893 16.9926C21.9859 15.4977 22.7452 13.9378 23.613 12.9499Z" fill="white"/>
<path id="Vector_3" d="M48.1494 18.9999V17.9679H50.4654C51.0814 17.9679 51.6214 17.8359 52.0854 17.5719C52.5494 17.2999 52.9094 16.9279 53.1654 16.4559C53.4294 15.9839 53.5614 15.4399 53.5614 14.8239C53.5614 14.2159 53.4294 13.6759 53.1654 13.2039C52.9014 12.7319 52.5374 12.3639 52.0734 12.0999C51.6094 11.8359 51.0734 11.7039 50.4654 11.7039H48.1614V10.6719H50.4894C51.0974 10.6719 51.6574 10.7759 52.1694 10.9839C52.6894 11.1919 53.1374 11.4839 53.5134 11.8599C53.8974 12.2359 54.1934 12.6759 54.4014 13.1799C54.6174 13.6839 54.7254 14.2359 54.7254 14.8359C54.7254 15.4279 54.6174 15.9799 54.4014 16.4919C54.1934 16.9959 53.9014 17.4359 53.5254 17.8119C53.1494 18.1879 52.7014 18.4799 52.1814 18.6879C51.6694 18.8959 51.1134 18.9999 50.5134 18.9999H48.1494ZM47.4054 18.9999V10.6719H48.5334V18.9999H47.4054ZM58.8202 19.1199C58.2602 19.1199 57.7562 18.9879 57.3082 18.7239C56.8602 18.4599 56.5042 18.1039 56.2402 17.6559C55.9762 17.1999 55.8442 16.6919 55.8442 16.1319C55.8442 15.5799 55.9762 15.0839 56.2402 14.6439C56.5042 14.1959 56.8602 13.8399 57.3082 13.5759C57.7562 13.3119 58.2602 13.1799 58.8202 13.1799C59.3722 13.1799 59.8722 13.3119 60.3202 13.5759C60.7762 13.8319 61.1362 14.1839 61.4002 14.6319C61.6642 15.0799 61.7962 15.5799 61.7962 16.1319C61.7962 16.6919 61.6642 17.1999 61.4002 17.6559C61.1362 18.1039 60.7762 18.4599 60.3202 18.7239C59.8722 18.9879 59.3722 19.1199 58.8202 19.1199ZM58.8202 18.0759C59.1802 18.0759 59.5002 17.9919 59.7802 17.8239C60.0602 17.6559 60.2802 17.4279 60.4402 17.1399C60.6002 16.8439 60.6802 16.5079 60.6802 16.1319C60.6802 15.7639 60.5962 15.4359 60.4282 15.1479C60.2682 14.8599 60.0482 14.6359 59.7682 14.4759C59.4962 14.3079 59.1802 14.2239 58.8202 14.2239C58.4602 14.2239 58.1402 14.3079 57.8602 14.4759C57.5802 14.6359 57.3602 14.8599 57.2002 15.1479C57.0402 15.4359 56.9602 15.7639 56.9602 16.1319C56.9602 16.5079 57.0402 16.8439 57.2002 17.1399C57.3602 17.4279 57.5802 17.6559 57.8602 17.8239C58.1402 17.9919 58.4602 18.0759 58.8202 18.0759ZM64.601 18.9999L62.345 13.2999H63.473L65.105 17.7399H64.745L66.365 13.2999H66.989L68.609 17.7399H68.249L69.881 13.2999H71.009L68.765 18.9999H68.129L66.485 14.6919H66.881L65.225 18.9999H64.601ZM76.121 18.9999V15.6759C76.121 15.2439 75.985 14.8879 75.713 14.6079C75.441 14.3279 75.089 14.1879 74.657 14.1879C74.369 14.1879 74.113 14.2519 73.889 14.3799C73.665 14.5079 73.489 14.6839 73.361 14.9079C73.233 15.1319 73.169 15.3879 73.169 15.6759L72.725 15.4239C72.725 14.9919 72.821 14.6079 73.013 14.2719C73.205 13.9359 73.473 13.6719 73.817 13.4799C74.161 13.2799 74.549 13.1799 74.981 13.1799C75.413 13.1799 75.793 13.2879 76.121 13.5039C76.457 13.7199 76.721 14.0039 76.913 14.3559C77.105 14.6999 77.201 15.0679 77.201 15.4599V18.9999H76.121ZM72.089 18.9999V13.2999H73.169V18.9999H72.089ZM78.7832 18.9999V10.4319H79.8632V18.9999H78.7832ZM84.1674 19.1199C83.6074 19.1199 83.1034 18.9879 82.6554 18.7239C82.2074 18.4599 81.8514 18.1039 81.5874 17.6559C81.3234 17.1999 81.1914 16.6919 81.1914 16.1319C81.1914 15.5799 81.3234 15.0839 81.5874 14.6439C81.8514 14.1959 82.2074 13.8399 82.6554 13.5759C83.1034 13.3119 83.6074 13.1799 84.1674 13.1799C84.7194 13.1799 85.2194 13.3119 85.6674 13.5759C86.1234 13.8319 86.4834 14.1839 86.7474 14.6319C87.0114 15.0799 87.1434 15.5799 87.1434 16.1319C87.1434 16.6919 87.0114 17.1999 86.7474 17.6559C86.4834 18.1039 86.1234 18.4599 85.6674 18.7239C85.2194 18.9879 84.7194 19.1199 84.1674 19.1199ZM84.1674 18.0759C84.5274 18.0759 84.8474 17.9919 85.1274 17.8239C85.4074 17.6559 85.6274 17.4279 85.7874 17.1399C85.9474 16.8439 86.0274 16.5079 86.0274 16.1319C86.0274 15.7639 85.9434 15.4359 85.7754 15.1479C85.6154 14.8599 85.3954 14.6359 85.1154 14.4759C84.8434 14.3079 84.5274 14.2239 84.1674 14.2239C83.8074 14.2239 83.4874 14.3079 83.2074 14.4759C82.9274 14.6359 82.7074 14.8599 82.5474 15.1479C82.3874 15.4359 82.3074 15.7639 82.3074 16.1319C82.3074 16.5079 82.3874 16.8439 82.5474 17.1399C82.7074 17.4279 82.9274 17.6559 83.2074 17.8239C83.4874 17.9919 83.8074 18.0759 84.1674 18.0759ZM90.9042 19.1199C90.3842 19.1199 89.9122 18.9919 89.4882 18.7359C89.0642 18.4719 88.7282 18.1159 88.4802 17.6679C88.2402 17.2199 88.1202 16.7159 88.1202 16.1559C88.1202 15.5959 88.2402 15.0919 88.4802 14.6439C88.7282 14.1959 89.0602 13.8399 89.4762 13.5759C89.9002 13.3119 90.3762 13.1799 90.9042 13.1799C91.3362 13.1799 91.7202 13.2719 92.0562 13.4559C92.4002 13.6319 92.6762 13.8799 92.8842 14.1999C93.0922 14.5119 93.2082 14.8759 93.2322 15.2919V17.0079C93.2082 17.4159 93.0922 17.7799 92.8842 18.0999C92.6842 18.4199 92.4122 18.6719 92.0682 18.8559C91.7322 19.0319 91.3442 19.1199 90.9042 19.1199ZM91.0842 18.0999C91.6202 18.0999 92.0522 17.9199 92.3802 17.5599C92.7082 17.1919 92.8722 16.7239 92.8722 16.1559C92.8722 15.7639 92.7962 15.4239 92.6442 15.1359C92.5002 14.8399 92.2922 14.6119 92.0202 14.4519C91.7482 14.2839 91.4322 14.1999 91.0722 14.1999C90.7122 14.1999 90.3922 14.2839 90.1122 14.4519C89.8402 14.6199 89.6242 14.8519 89.4642 15.1479C89.3122 15.4359 89.2362 15.7679 89.2362 16.1439C89.2362 16.5279 89.3122 16.8679 89.4642 17.1639C89.6242 17.4519 89.8442 17.6799 90.1242 17.8479C90.4042 18.0159 90.7242 18.0999 91.0842 18.0999ZM92.8002 18.9999V17.4639L93.0042 16.0719L92.8002 14.6919V13.2999H93.8922V18.9999H92.8002ZM97.9966 19.1199C97.4686 19.1199 96.9966 18.9919 96.5806 18.7359C96.1646 18.4719 95.8326 18.1159 95.5846 17.6679C95.3446 17.2199 95.2246 16.7159 95.2246 16.1559C95.2246 15.5959 95.3446 15.0919 95.5846 14.6439C95.8326 14.1959 96.1646 13.8399 96.5806 13.5759C96.9966 13.3119 97.4686 13.1799 97.9966 13.1799C98.4206 13.1799 98.8046 13.2719 99.1486 13.4559C99.4926 13.6319 99.7686 13.8799 99.9766 14.1999C100.193 14.5119 100.312 14.8759 100.336 15.2919V17.0079C100.312 17.4159 100.197 17.7799 99.9886 18.0999C99.7806 18.4199 99.5046 18.6719 99.1606 18.8559C98.8166 19.0319 98.4286 19.1199 97.9966 19.1199ZM98.1766 18.0999C98.5366 18.0999 98.8486 18.0159 99.1126 17.8479C99.3846 17.6799 99.5966 17.4519 99.7486 17.1639C99.9006 16.8679 99.9766 16.5319 99.9766 16.1559C99.9766 15.7639 99.8966 15.4239 99.7366 15.1359C99.5846 14.8479 99.3726 14.6199 99.1006 14.4519C98.8366 14.2839 98.5246 14.1999 98.1646 14.1999C97.8046 14.1999 97.4886 14.2839 97.2166 14.4519C96.9446 14.6199 96.7286 14.8519 96.5686 15.1479C96.4166 15.4359 96.3406 15.7679 96.3406 16.1439C96.3406 16.5279 96.4166 16.8679 96.5686 17.1639C96.7286 17.4519 96.9446 17.6799 97.2166 17.8479C97.4966 18.0159 97.8166 18.0999 98.1766 18.0999ZM100.996 18.9999H99.9046V17.4639L100.109 16.0719L99.9046 14.6919V10.4319H100.996V18.9999ZM109.289 19.1199C108.697 19.1199 108.145 19.0119 107.633 18.7959C107.121 18.5719 106.673 18.2639 106.289 17.8719C105.905 17.4719 105.605 17.0119 105.389 16.4919C105.181 15.9719 105.077 15.4159 105.077 14.8239C105.077 14.2239 105.181 13.6679 105.389 13.1559C105.605 12.6359 105.901 12.1799 106.277 11.7879C106.661 11.3959 107.105 11.0919 107.609 10.8759C108.121 10.6599 108.673 10.5519 109.265 10.5519C109.857 10.5519 110.405 10.6599 110.909 10.8759C111.421 11.0919 111.869 11.3959 112.253 11.7879C112.637 12.1799 112.937 12.6359 113.153 13.1559C113.369 13.6759 113.477 14.2359 113.477 14.8359C113.477 15.4279 113.369 15.9839 113.153 16.5039C112.937 17.0239 112.637 17.4799 112.253 17.8719C111.877 18.2639 111.433 18.5719 110.921 18.7959C110.417 19.0119 109.873 19.1199 109.289 19.1199ZM109.265 18.0399C109.865 18.0399 110.389 17.9039 110.837 17.6319C111.293 17.3519 111.653 16.9719 111.917 16.4919C112.181 16.0039 112.313 15.4479 112.313 14.8239C112.313 14.3599 112.237 13.9359 112.085 13.5519C111.933 13.1599 111.721 12.8199 111.449 12.5319C111.177 12.2439 110.857 12.0239 110.489 11.8719C110.121 11.7119 109.713 11.6319 109.265 11.6319C108.673 11.6319 108.149 11.7679 107.693 12.0399C107.245 12.3119 106.889 12.6879 106.625 13.1679C106.369 13.6479 106.241 14.1999 106.241 14.8239C106.241 15.2879 106.313 15.7199 106.457 16.1199C106.609 16.5119 106.817 16.8519 107.081 17.1399C107.353 17.4199 107.673 17.6399 108.041 17.7999C108.417 17.9599 108.825 18.0399 109.265 18.0399ZM118.984 18.9999V15.6759C118.984 15.2439 118.848 14.8879 118.576 14.6079C118.304 14.3279 117.952 14.1879 117.52 14.1879C117.232 14.1879 116.976 14.2519 116.752 14.3799C116.528 14.5079 116.352 14.6839 116.224 14.9079C116.096 15.1319 116.032 15.3879 116.032 15.6759L115.588 15.4239C115.588 14.9919 115.684 14.6079 115.876 14.2719C116.068 13.9359 116.336 13.6719 116.68 13.4799C117.024 13.2799 117.412 13.1799 117.844 13.1799C118.276 13.1799 118.656 13.2879 118.984 13.5039C119.32 13.7199 119.584 14.0039 119.776 14.3559C119.968 14.6999 120.064 15.0679 120.064 15.4599V18.9999H118.984ZM114.952 18.9999V13.2999H116.032V18.9999H114.952ZM126.475 18.9999V10.9119H127.603V18.9999H126.475ZM123.643 11.7039V10.6719H130.423V11.7039H123.643ZM135.727 18.9999V15.6759C135.727 15.2439 135.591 14.8879 135.319 14.6079C135.047 14.3279 134.695 14.1879 134.263 14.1879C133.975 14.1879 133.719 14.2519 133.495 14.3799C133.271 14.5079 133.095 14.6839 132.967 14.9079C132.839 15.1319 132.775 15.3879 132.775 15.6759L132.331 15.4239C132.331 14.9919 132.427 14.6079 132.619 14.2719C132.811 13.9359 133.079 13.6719 133.423 13.4799C133.767 13.2799 134.155 13.1799 134.587 13.1799C135.019 13.1799 135.399 13.2759 135.727 13.4679C136.063 13.6599 136.327 13.9279 136.519 14.2719C136.711 14.6159 136.807 15.0119 136.807 15.4599V18.9999H135.727ZM131.695 18.9999V10.4319H132.775V18.9999H131.695ZM141.029 19.1199C140.461 19.1199 139.949 18.9919 139.493 18.7359C139.037 18.4719 138.677 18.1159 138.413 17.6679C138.149 17.2199 138.017 16.7119 138.017 16.1439C138.017 15.5839 138.145 15.0799 138.401 14.6319C138.665 14.1839 139.017 13.8319 139.457 13.5759C139.905 13.3119 140.405 13.1799 140.957 13.1799C141.485 13.1799 141.949 13.2999 142.349 13.5399C142.757 13.7799 143.073 14.1119 143.297 14.5359C143.529 14.9599 143.645 15.4399 143.645 15.9759C143.645 16.0559 143.641 16.1439 143.633 16.2399C143.625 16.3279 143.609 16.4319 143.585 16.5519H138.773V15.6519H143.009L142.613 15.9999C142.613 15.6159 142.545 15.2919 142.409 15.0279C142.273 14.7559 142.081 14.5479 141.833 14.4039C141.585 14.2519 141.285 14.1759 140.933 14.1759C140.565 14.1759 140.241 14.2559 139.961 14.4159C139.681 14.5759 139.465 14.7999 139.313 15.0879C139.161 15.3759 139.085 15.7159 139.085 16.1079C139.085 16.5079 139.165 16.8599 139.325 17.1639C139.485 17.4599 139.713 17.6919 140.009 17.8599C140.305 18.0199 140.645 18.0999 141.029 18.0999C141.349 18.0999 141.641 18.0439 141.905 17.9319C142.177 17.8199 142.409 17.6519 142.601 17.4279L143.297 18.1359C143.025 18.4559 142.689 18.6999 142.289 18.8679C141.897 19.0359 141.477 19.1199 141.029 19.1199Z" fill="#B2BBCC"/>
<path id="Vector_4" d="M45.3961 37L50.0041 25.8H51.2841L55.8601 37H53.8761L50.2921 27.928H50.9641L47.3481 37H45.3961ZM47.6681 34.84V33.24H53.6041V34.84H47.6681ZM61.4945 37.16C60.9078 37.16 60.3852 37.0373 59.9265 36.792C59.4678 36.536 59.1052 36.1893 58.8385 35.752C58.5825 35.3147 58.4545 34.8187 58.4545 34.264V32.056C58.4545 31.5013 58.5878 31.0053 58.8545 30.568C59.1212 30.1307 59.4838 29.7893 59.9425 29.544C60.4012 29.288 60.9185 29.16 61.4945 29.16C62.1878 29.16 62.8118 29.3413 63.3665 29.704C63.9318 30.056 64.3745 30.536 64.6945 31.144C65.0252 31.7413 65.1905 32.4187 65.1905 33.176C65.1905 33.9227 65.0252 34.6 64.6945 35.208C64.3745 35.8053 63.9318 36.28 63.3665 36.632C62.8118 36.984 62.1878 37.16 61.4945 37.16ZM61.2065 35.496C61.6332 35.496 62.0065 35.4 62.3265 35.208C62.6572 35.0053 62.9132 34.728 63.0945 34.376C63.2865 34.024 63.3825 33.6187 63.3825 33.16C63.3825 32.7013 63.2865 32.296 63.0945 31.944C62.9132 31.592 62.6572 31.32 62.3265 31.128C62.0065 30.9253 61.6332 30.824 61.2065 30.824C60.7798 30.824 60.4012 30.9253 60.0705 31.128C59.7398 31.32 59.4838 31.592 59.3025 31.944C59.1212 32.296 59.0305 32.7013 59.0305 33.16C59.0305 33.6187 59.1212 34.024 59.3025 34.376C59.4838 34.728 59.7398 35.0053 60.0705 35.208C60.4012 35.4 60.7798 35.496 61.2065 35.496ZM57.3825 40.2V29.32H59.1425V31.384L58.8385 33.256L59.1425 35.112V40.2H57.3825ZM70.9358 37.16C70.3491 37.16 69.8264 37.0373 69.3678 36.792C68.9091 36.536 68.5464 36.1893 68.2798 35.752C68.0238 35.3147 67.8958 34.8187 67.8958 34.264V32.056C67.8958 31.5013 68.0291 31.0053 68.2958 30.568C68.5624 30.1307 68.9251 29.7893 69.3838 29.544C69.8424 29.288 70.3598 29.16 70.9358 29.16C71.6291 29.16 72.2531 29.3413 72.8078 29.704C73.3731 30.056 73.8158 30.536 74.1358 31.144C74.4664 31.7413 74.6318 32.4187 74.6318 33.176C74.6318 33.9227 74.4664 34.6 74.1358 35.208C73.8158 35.8053 73.3731 36.28 72.8078 36.632C72.2531 36.984 71.6291 37.16 70.9358 37.16ZM70.6478 35.496C71.0744 35.496 71.4478 35.4 71.7678 35.208C72.0984 35.0053 72.3544 34.728 72.5358 34.376C72.7278 34.024 72.8238 33.6187 72.8238 33.16C72.8238 32.7013 72.7278 32.296 72.5358 31.944C72.3544 31.592 72.0984 31.32 71.7678 31.128C71.4478 30.9253 71.0744 30.824 70.6478 30.824C70.2211 30.824 69.8424 30.9253 69.5118 31.128C69.1811 31.32 68.9251 31.592 68.7438 31.944C68.5624 32.296 68.4718 32.7013 68.4718 33.16C68.4718 33.6187 68.5624 34.024 68.7438 34.376C68.9251 34.728 69.1811 35.0053 69.5118 35.208C69.8424 35.4 70.2211 35.496 70.6478 35.496ZM66.8238 40.2V29.32H68.5838V31.384L68.2798 33.256L68.5838 35.112V40.2H66.8238ZM76.265 37V25.48H78.025V37H76.265ZM83.7118 37.16C82.9438 37.16 82.2504 36.9893 81.6318 36.648C81.0238 36.296 80.5384 35.816 80.1758 35.208C79.8238 34.6 79.6478 33.9173 79.6478 33.16C79.6478 32.4027 79.8238 31.7253 80.1758 31.128C80.5278 30.52 81.0024 30.04 81.5998 29.688C82.2078 29.336 82.8798 29.16 83.6158 29.16C84.3304 29.16 84.9598 29.3253 85.5038 29.656C86.0584 29.9867 86.4904 30.44 86.7998 31.016C87.1198 31.592 87.2798 32.248 87.2798 32.984C87.2798 33.112 87.2691 33.2453 87.2478 33.384C87.2371 33.512 87.2158 33.656 87.1838 33.816H80.8798V32.376H86.2718L85.6158 32.952C85.5944 32.4827 85.5038 32.088 85.3438 31.768C85.1838 31.448 84.9544 31.2027 84.6558 31.032C84.3678 30.8613 84.0104 30.776 83.5838 30.776C83.1358 30.776 82.7464 30.872 82.4158 31.064C82.0851 31.256 81.8291 31.528 81.6478 31.88C81.4664 32.2213 81.3758 32.632 81.3758 33.112C81.3758 33.592 81.4718 34.0133 81.6638 34.376C81.8558 34.7387 82.1278 35.0213 82.4798 35.224C82.8318 35.416 83.2371 35.512 83.6958 35.512C84.0904 35.512 84.4531 35.4427 84.7838 35.304C85.1251 35.1653 85.4131 34.9627 85.6478 34.696L86.7678 35.832C86.3944 36.2693 85.9411 36.6 85.4078 36.824C84.8744 37.048 84.3091 37.16 83.7118 37.16ZM95.5738 37.16C94.6884 37.16 93.9364 37 93.3178 36.68C92.6991 36.36 92.1444 35.8907 91.6538 35.272L92.9018 34.024C93.2111 34.472 93.5791 34.824 94.0058 35.08C94.4324 35.3253 94.9764 35.448 95.6378 35.448C96.2564 35.448 96.7471 35.32 97.1098 35.064C97.4831 34.808 97.6698 34.456 97.6698 34.008C97.6698 33.6347 97.5738 33.3307 97.3818 33.096C97.1898 32.8613 96.9338 32.6693 96.6138 32.52C96.3044 32.36 95.9578 32.2213 95.5738 32.104C95.2004 31.976 94.8218 31.8373 94.4378 31.688C94.0644 31.528 93.7178 31.3307 93.3978 31.096C93.0884 30.8613 92.8378 30.5573 92.6458 30.184C92.4538 29.8107 92.3578 29.336 92.3578 28.76C92.3578 28.0987 92.5178 27.5387 92.8378 27.08C93.1684 26.6107 93.6111 26.2533 94.1658 26.008C94.7204 25.7627 95.3391 25.64 96.0218 25.64C96.7578 25.64 97.4138 25.784 97.9898 26.072C98.5764 26.36 99.0511 26.728 99.4138 27.176L98.1658 28.424C97.8458 28.0613 97.5098 27.7947 97.1578 27.624C96.8164 27.4427 96.4218 27.352 95.9738 27.352C95.4191 27.352 94.9818 27.464 94.6618 27.688C94.3524 27.912 94.1978 28.2267 94.1978 28.632C94.1978 28.9733 94.2938 29.2507 94.4858 29.464C94.6778 29.6667 94.9284 29.8427 95.2378 29.992C95.5578 30.1307 95.9044 30.264 96.2778 30.392C96.6618 30.52 97.0404 30.664 97.4138 30.824C97.7978 30.984 98.1444 31.192 98.4538 31.448C98.7738 31.6933 99.0298 32.0133 99.2218 32.408C99.4138 32.8027 99.5098 33.2987 99.5098 33.896C99.5098 34.8987 99.1524 35.6933 98.4378 36.28C97.7338 36.8667 96.7791 37.16 95.5738 37.16ZM102.432 37V26.12H104.192V37H102.432ZM100.592 30.92V29.32H106.032V30.92H100.592ZM110.772 37.16C110.026 37.16 109.348 36.984 108.74 36.632C108.132 36.2693 107.647 35.784 107.284 35.176C106.932 34.568 106.756 33.8907 106.756 33.144C106.756 32.3973 106.932 31.7253 107.284 31.128C107.647 30.5307 108.132 30.056 108.74 29.704C109.348 29.3413 110.026 29.16 110.772 29.16C111.53 29.16 112.212 29.336 112.82 29.688C113.428 30.04 113.908 30.52 114.26 31.128C114.623 31.7253 114.804 32.3973 114.804 33.144C114.804 33.8907 114.623 34.568 114.26 35.176C113.908 35.784 113.428 36.2693 112.82 36.632C112.212 36.984 111.53 37.16 110.772 37.16ZM110.772 35.464C111.21 35.464 111.594 35.368 111.924 35.176C112.266 34.9733 112.527 34.696 112.708 34.344C112.9 33.992 112.996 33.592 112.996 33.144C112.996 32.696 112.9 32.3013 112.708 31.96C112.516 31.6187 112.255 31.352 111.924 31.16C111.594 30.9573 111.21 30.856 110.772 30.856C110.346 30.856 109.962 30.9573 109.62 31.16C109.29 31.352 109.028 31.6187 108.836 31.96C108.655 32.3013 108.564 32.696 108.564 33.144C108.564 33.592 108.655 33.992 108.836 34.344C109.028 34.696 109.29 34.9733 109.62 35.176C109.962 35.368 110.346 35.464 110.772 35.464ZM116.428 37V29.32H118.188V37H116.428ZM118.188 32.728L117.58 32.424C117.58 31.4533 117.793 30.6693 118.22 30.072C118.657 29.464 119.313 29.16 120.188 29.16C120.572 29.16 120.919 29.2293 121.228 29.368C121.537 29.5067 121.825 29.7307 122.092 30.04L120.94 31.224C120.801 31.0747 120.647 30.968 120.476 30.904C120.305 30.84 120.108 30.808 119.884 30.808C119.393 30.808 118.988 30.9627 118.668 31.272C118.348 31.5813 118.188 32.0667 118.188 32.728ZM126.437 37.16C125.669 37.16 124.976 36.9893 124.357 36.648C123.749 36.296 123.264 35.816 122.901 35.208C122.549 34.6 122.373 33.9173 122.373 33.16C122.373 32.4027 122.549 31.7253 122.901 31.128C123.253 30.52 123.728 30.04 124.325 29.688C124.933 29.336 125.605 29.16 126.341 29.16C127.056 29.16 127.685 29.3253 128.229 29.656C128.784 29.9867 129.216 30.44 129.525 31.016C129.845 31.592 130.005 32.248 130.005 32.984C130.005 33.112 129.995 33.2453 129.973 33.384C129.963 33.512 129.941 33.656 129.909 33.816H123.605V32.376H128.997L128.341 32.952C128.32 32.4827 128.229 32.088 128.069 31.768C127.909 31.448 127.68 31.2027 127.381 31.032C127.093 30.8613 126.736 30.776 126.309 30.776C125.861 30.776 125.472 30.872 125.141 31.064C124.811 31.256 124.555 31.528 124.373 31.88C124.192 32.2213 124.101 32.632 124.101 33.112C124.101 33.592 124.197 34.0133 124.389 34.376C124.581 34.7387 124.853 35.0213 125.205 35.224C125.557 35.416 125.963 35.512 126.421 35.512C126.816 35.512 127.179 35.4427 127.509 35.304C127.851 35.1653 128.139 34.9627 128.373 34.696L129.493 35.832C129.12 36.2693 128.667 36.6 128.133 36.824C127.6 37.048 127.035 37.16 126.437 37.16Z" fill="white"/>
</g>
<defs>
<clipPath id="clip0_1_875">
<rect width="161" height="51" fill="white" transform="translate(0.226196)"/>
</clipPath>
</defs>
</svg>
