<svg width="198" height="136" viewBox="0 0 198 136" fill="none" xmlns="http://www.w3.org/2000/svg">
<g id="Group 8">
<path id="Vector" d="M197.31 106.404C187.129 110.751 178.118 111.075 167.375 108.482C165.714 108.754 167.879 110.218 168.417 110.675C173.343 114.571 181.365 114.669 187.697 114.339C172.353 123.253 152.813 130.887 135.027 128.919C114.376 127.049 93.0125 112.29 90.8999 90.5568C103.691 86.0133 116.65 78.1128 123.237 65.802C130.217 49.1618 112.992 40.7462 99.0319 50.8345C87.7108 59.0186 81.7897 73.0889 81.3383 86.9104C27.6846 97.728 -7.28583 51.1297 3.94267 0.595652C3.95893 0.534022 3.96245 0.469725 3.95301 0.406689C3.94358 0.343652 3.9214 0.283199 3.88781 0.229027C3.85422 0.174856 3.80994 0.128102 3.75768 0.0916229C3.70541 0.0551438 3.64625 0.0297059 3.58382 0.0168633C3.52377 0.000305501 3.46102 -0.00411661 3.39924 0.00385216C3.33746 0.0118209 3.27788 0.0320218 3.224 0.0632757C3.17011 0.0945296 3.12299 0.136208 3.0854 0.185878C3.0478 0.235548 3.02048 0.292214 3.00503 0.352562C-11.0537 52.814 25.7341 102.167 81.6798 92.9182C83.503 109.014 94.9514 122.778 109.195 129.77C134.564 142.613 167.85 133.873 189.219 116.73C188.675 119.624 187.048 122.217 186.493 125.099C185.844 128.473 187.124 134.649 188.657 132.739C189.338 129.52 190.265 126.358 191.43 123.281C192.553 120.15 193.918 116.649 195.186 113.575L195.441 112.996L197.953 107.104C197.995 107.012 198.01 106.909 197.994 106.809C197.978 106.709 197.933 106.615 197.864 106.54C197.796 106.466 197.707 106.413 197.608 106.388C197.509 106.364 197.406 106.37 197.31 106.404ZM97.0003 65.5473C105.63 48.965 125.361 51.7374 114.005 67.3474C107.774 74.7087 99.8217 80.4168 90.8536 83.9644C91.4618 77.435 93.565 71.1332 97.0003 65.5473Z" fill="#386DFF"/>
<path id="Vector_2" d="M11.6694 76.7238C11.7106 76.6735 11.7638 76.6344 11.824 76.6101C11.8842 76.5857 11.9496 76.5769 12.0141 76.5844C12.0786 76.5919 12.1403 76.6154 12.1933 76.653C12.2463 76.6905 12.2891 76.7407 12.3177 76.799C17.602 87.4025 29.4267 95.0251 39.9085 95.8123C40.0027 95.8182 40.0911 95.8598 40.1556 95.9286C40.2202 95.9974 40.256 96.0883 40.2558 96.1827C40.2548 96.2774 40.2225 96.3691 40.1638 96.4434C40.1052 96.5178 40.0235 96.5706 39.9317 96.5936C27.8755 99.557 15.6226 88.0854 11.571 77.4531C11.5239 77.3318 11.5102 77.2001 11.5316 77.0717C11.553 76.9434 11.6086 76.8232 11.6926 76.7238H11.6694Z" fill="#386DFF"/>
<path id="Vector_3" d="M124.661 41.7013C131.56 40.9373 135.837 49.6596 132.573 55.3781C132.552 55.4173 132.518 55.4483 132.478 55.466C132.437 55.4838 132.391 55.4872 132.348 55.4758C132.305 55.4644 132.268 55.4388 132.241 55.4032C132.215 55.3676 132.201 55.3241 132.202 55.2797C132.202 49.6481 130.061 44.2827 124.614 42.0833C124.572 42.0686 124.536 42.0398 124.512 42.0016C124.488 41.9635 124.478 41.9183 124.483 41.8736C124.489 41.8289 124.509 41.7874 124.541 41.7561C124.574 41.7247 124.616 41.7054 124.661 41.7013Z" fill="#386DFF"/>
<path id="Vector_4" d="M10.3614 73.1873C9.81246 73.2351 9.26547 73.0761 8.82761 72.7416C8.49593 72.5033 8.2438 72.1705 8.10412 71.7866C7.9699 71.415 7.95173 71.0113 8.05203 70.6291C8.18625 70.1101 8.47731 69.6453 8.88548 69.2979C9.3749 69.4317 9.83183 69.6641 10.2283 69.9808C10.496 70.1925 10.6992 70.475 10.8148 70.7961C10.9303 71.1173 10.9537 71.4644 10.8823 71.7982C10.7721 72.2826 10.5969 72.7499 10.3614 73.1873Z" fill="#386DFF"/>
<path id="Vector_5" d="M131.803 59.0534C131.809 59.0206 131.824 58.9906 131.848 58.9675C131.872 58.9444 131.903 58.9296 131.936 58.925C131.969 58.9205 132.002 58.9266 132.031 58.9424C132.06 58.9582 132.084 58.9829 132.098 59.0128C132.257 59.3284 132.35 59.6731 132.37 60.0257C132.395 60.5028 132.328 60.9803 132.173 61.4322C132.019 61.8822 131.777 62.2973 131.461 62.6534C131.23 62.9208 130.947 63.1376 130.628 63.2901C130.599 63.3025 130.566 63.3061 130.535 63.3002C130.503 63.2943 130.475 63.2793 130.452 63.257C130.429 63.2348 130.413 63.2063 130.406 63.1751C130.4 63.1439 130.402 63.1114 130.414 63.0817C130.558 62.7808 130.674 62.5029 130.79 62.2251C130.946 61.8489 131.079 61.4727 131.213 61.0965C131.346 60.7203 131.467 60.344 131.577 59.9389C131.658 59.6611 131.733 59.3775 131.803 59.0534Z" fill="#386DFF"/>
<path id="Vector_6" d="M128.973 121.864C137.95 124.115 150.862 123.635 159.128 119.346C159.145 119.334 159.167 119.329 159.188 119.333C159.209 119.336 159.228 119.348 159.24 119.366C159.253 119.384 159.257 119.406 159.254 119.427C159.25 119.448 159.238 119.467 159.22 119.479C152.113 125.724 137.163 126.39 128.921 122.014C128.904 122.005 128.892 121.99 128.885 121.972C128.878 121.954 128.878 121.935 128.884 121.917C128.89 121.899 128.903 121.884 128.919 121.874C128.935 121.865 128.954 121.861 128.973 121.864Z" fill="#386DFF"/>
</g>
</svg>
