<svg width="17" height="16" viewBox="0 0 17 16" fill="none" xmlns="http://www.w3.org/2000/svg">
<g id="List &#226;&#134;&#146; Item" clip-path="url(#clip0_1_671)">
<path id="Vector" d="M11.44 2.50669H10.5866V1.97335C10.5866 1.86669 10.5422 1.76002 10.4533 1.65335C10.3644 1.54669 10.2489 1.49335 10.1066 1.49335C9.96443 1.49335 9.84887 1.54669 9.75998 1.65335C9.67109 1.76002 9.62665 1.86669 9.62665 1.97335V2.50669H5.25332V1.97335C5.25332 1.86669 5.20887 1.76002 5.11998 1.65335C5.03109 1.54669 4.91554 1.49335 4.77332 1.49335C4.63109 1.49335 4.51554 1.54669 4.42665 1.65335C4.33776 1.76002 4.29332 1.86669 4.29332 1.97335V2.50669H3.43998C3.08443 2.47113 2.74665 2.50669 2.42665 2.61335C2.10665 2.72002 1.82221 2.8978 1.57332 3.14669C1.32443 3.39557 1.14665 3.68002 1.03998 4.00002C0.933316 4.32002 0.897761 4.6578 0.933316 5.01335V12C0.897761 12.3556 0.933316 12.6934 1.03998 13.0134C1.14665 13.3334 1.32443 13.6178 1.57332 13.8667C1.82221 14.1156 2.10665 14.2934 2.42665 14.4C2.74665 14.5067 3.08443 14.5422 3.43998 14.5067H11.44C11.7955 14.5422 12.1333 14.5067 12.4533 14.4C12.7733 14.2934 13.0578 14.1156 13.3067 13.8667C13.5555 13.6178 13.7333 13.3334 13.84 13.0134C13.9466 12.6934 13.9822 12.3556 13.9466 12V5.01335C13.9822 4.6578 13.9466 4.32002 13.84 4.00002C13.7333 3.68002 13.5555 3.39557 13.3067 3.14669C13.0578 2.8978 12.7733 2.72002 12.4533 2.61335C12.1333 2.50669 11.7955 2.47113 11.44 2.50669ZM3.43998 3.52002H4.29332V4.00002C4.29332 4.14224 4.33776 4.2578 4.42665 4.34669C4.51554 4.43557 4.63109 4.48002 4.77332 4.48002C4.91554 4.48002 5.03109 4.43557 5.11998 4.34669C5.20887 4.2578 5.25332 4.14224 5.25332 4.00002V3.52002H9.62665V4.00002C9.62665 4.14224 9.67109 4.2578 9.75998 4.34669C9.84887 4.43557 9.96443 4.48002 10.1066 4.48002C10.2489 4.48002 10.3644 4.43557 10.4533 4.34669C10.5422 4.2578 10.5866 4.14224 10.5866 4.00002V3.52002H11.44C11.9733 3.52002 12.3555 3.63557 12.5866 3.86669C12.8178 4.0978 12.9333 4.48002 12.9333 5.01335V5.49335H1.94665V5.01335C1.94665 4.48002 2.06221 4.0978 2.29332 3.86669C2.52443 3.63557 2.90665 3.52002 3.43998 3.52002ZM11.44 13.4934H3.43998C2.90665 13.4934 2.52443 13.3778 2.29332 13.1467C2.06221 12.9156 1.94665 12.5334 1.94665 12V6.50669H12.9333V12C12.9333 12.5334 12.8178 12.9156 12.5866 13.1467C12.3555 13.3778 11.9733 13.4934 11.44 13.4934ZM5.46665 8.64002C5.46665 8.85335 5.39554 9.02224 5.25332 9.14669C5.11109 9.27113 4.95109 9.33335 4.77332 9.33335C4.59554 9.33335 4.44443 9.27113 4.31998 9.14669C4.19554 9.02224 4.13332 8.86224 4.13332 8.66669C4.13332 8.47113 4.19554 8.31113 4.31998 8.18669C4.44443 8.06224 4.59554 8.00002 4.77332 8.00002C4.95109 8.00002 5.11109 8.06224 5.25332 8.18669C5.39554 8.31113 5.46665 8.46224 5.46665 8.64002ZM8.13332 8.64002C8.13332 8.85335 8.06221 9.02224 7.91998 9.14669C7.77776 9.27113 7.61776 9.33335 7.43998 9.33335C7.26221 9.33335 7.11109 9.27113 6.98665 9.14669C6.86221 9.02224 6.79998 8.86224 6.79998 8.66669C6.79998 8.47113 6.86221 8.31113 6.98665 8.18669C7.11109 8.06224 7.26221 8.00002 7.43998 8.00002C7.61776 8.00002 7.77776 8.06224 7.91998 8.18669C8.06221 8.31113 8.13332 8.46224 8.13332 8.64002ZM10.8 8.64002C10.8 8.85335 10.7289 9.02224 10.5866 9.14669C10.4444 9.27113 10.2844 9.33335 10.1066 9.33335C9.92887 9.33335 9.77776 9.27113 9.65332 9.14669C9.52887 9.02224 9.46665 8.86224 9.46665 8.66669C9.46665 8.47113 9.52887 8.31113 9.65332 8.18669C9.77776 8.06224 9.92887 8.00002 10.1066 8.00002C10.2844 8.00002 10.4444 8.06224 10.5866 8.18669C10.7289 8.31113 10.8 8.46224 10.8 8.64002ZM5.46665 11.3067C5.46665 11.52 5.39554 11.6889 5.25332 11.8134C5.11109 11.9378 4.95109 12 4.77332 12C4.59554 12 4.44443 11.9378 4.31998 11.8134C4.19554 11.6889 4.13332 11.5289 4.13332 11.3334C4.13332 11.1378 4.19554 10.9778 4.31998 10.8534C4.44443 10.7289 4.59554 10.6667 4.77332 10.6667C4.95109 10.6667 5.11109 10.7289 5.25332 10.8534C5.39554 10.9778 5.46665 11.1289 5.46665 11.3067ZM8.13332 11.3067C8.13332 11.52 8.06221 11.6889 7.91998 11.8134C7.77776 11.9378 7.61776 12 7.43998 12C7.26221 12 7.11109 11.9378 6.98665 11.8134C6.86221 11.6889 6.79998 11.5289 6.79998 11.3334C6.79998 11.1378 6.86221 10.9778 6.98665 10.8534C7.11109 10.7289 7.26221 10.6667 7.43998 10.6667C7.61776 10.6667 7.77776 10.7289 7.91998 10.8534C8.06221 10.9778 8.13332 11.1289 8.13332 11.3067ZM10.8 11.3067C10.8 11.52 10.7289 11.6889 10.5866 11.8134C10.4444 11.9378 10.2844 12 10.1066 12C9.92887 12 9.77776 11.9378 9.65332 11.8134C9.52887 11.6889 9.46665 11.5289 9.46665 11.3334C9.46665 11.1378 9.52887 10.9778 9.65332 10.8534C9.77776 10.7289 9.92887 10.6667 10.1066 10.6667C10.2844 10.6667 10.4444 10.7289 10.5866 10.8534C10.7289 10.9778 10.8 11.1289 10.8 11.3067Z" fill="#1363DF"/>
</g>
<defs>
<clipPath id="clip0_1_671">
<rect width="16" height="16" fill="white" transform="matrix(1 0 0 -1 0.919983 16)"/>
</clipPath>
</defs>
</svg>
