<svg width="28" height="25" viewBox="0 0 28 25" fill="none" xmlns="http://www.w3.org/2000/svg">
<path d="M24.8036 0.196533H21.8571V4.12512C21.8571 4.66756 21.4174 5.10729 20.875 5.10729C20.3325 5.10729 19.8928 4.66756 19.8928 4.12512V0.196533H8.10712V4.12512C8.10712 4.66756 7.6674 5.10729 7.12496 5.10729C6.58252 5.10729 6.1428 4.66756 6.1428 4.12512V0.196533H3.19643C1.56916 0.196533 0.25 1.51569 0.25 3.14296V21.8037C0.25 23.431 1.56916 24.7501 3.19643 24.7501H24.8036C26.4308 24.7501 27.75 23.431 27.75 21.8037V3.14296C27.75 1.51569 26.4308 0.196533 24.8036 0.196533ZM25.7857 21.8037C25.7857 22.3461 25.346 22.7859 24.8035 22.7859H3.19643C2.65399 22.7859 2.21427 22.3461 2.21427 21.8037V9.03582H25.7857V21.8037Z" fill="white"/>
</svg>
