<svg width="45" height="45" viewBox="0 0 45 45" fill="none" xmlns="http://www.w3.org/2000/svg">
<g id="Icon" clip-path="url(#clip0_1_461)">
<path id="Vector" d="M2.16333 22.6467C1.96778 22.4511 1.72333 22.4267 1.43 22.5733C1.13666 22.72 0.989998 22.94 0.989998 23.2333V42.4467C0.989998 42.6422 1.06333 42.8133 1.21 42.96C1.35666 43.1067 1.52778 43.18 1.72333 43.18H20.9367C21.23 43.18 21.45 43.0333 21.5967 42.74C21.7433 42.4467 21.7189 42.2022 21.5233 42.0067L2.16333 22.6467ZM2.45666 41.7133V24.8467L19.3233 41.7133H2.45666ZM5.83 38.9267H11.4033C11.6967 39.0244 11.8922 38.9267 11.99 38.6333C12.0878 38.34 12.0389 38.0467 11.8433 37.7533L6.41666 32.3267C6.12333 32.1311 5.83 32.0822 5.53666 32.18C5.24333 32.2778 5.09666 32.4733 5.09666 32.7667V38.34C5.19444 38.5356 5.29222 38.6822 5.39 38.78C5.48778 38.8778 5.63444 38.9267 5.83 38.9267ZM6.56333 34.5267L9.64333 37.6067H6.56333V34.5267ZM8.61666 4.60667H9.93666V5.92667H8.61666V4.60667ZM11.4033 4.60667H12.7233V5.92667H11.4033V4.60667ZM14.0433 4.60667H15.51V5.92667H14.0433V4.60667ZM15.2167 14.2867C14.9233 14.3844 14.7767 14.58 14.7767 14.8733V22.5C14.7767 22.7933 14.9233 22.9889 15.2167 23.0867L21.3767 25.8733C21.5722 25.9711 21.7678 25.9711 21.9633 25.8733L28.1233 23.0867C28.4167 22.9889 28.5633 22.7933 28.5633 22.5V14.8733C28.5633 14.58 28.4167 14.3844 28.1233 14.2867L21.9633 11.5C21.7678 11.5 21.5722 11.5 21.3767 11.5L15.2167 14.2867ZM20.9367 24.26L16.2433 22.06V16.0467L20.9367 18.1V24.26ZM27.2433 22.06L22.4033 24.26V18.1L27.2433 16.0467V22.06ZM21.67 12.9667L26.2167 14.8733L21.67 16.9267L17.1233 14.8733L21.67 12.9667ZM20.9367 27.9267H22.4033V31.4467H20.9367V27.9267ZM20.9367 6.66H22.4033V10.18H20.9367V6.66ZM9.64333 13.5533L10.23 12.2333L13.1633 13.7L12.5767 14.8733L9.64333 13.5533ZM30.1767 13.5533L33.11 12.2333L33.6967 13.5533L30.7633 14.8733L30.1767 13.5533ZM9.64333 24.5533L12.5767 23.2333L13.1633 24.5533L10.23 25.8733L9.64333 24.5533ZM41.6167 33.5H37.51V22.7933L41.47 18.6867C42.0567 18.1978 42.35 17.5867 42.35 16.8533C42.35 16.12 42.0811 15.5089 41.5433 15.02C41.0056 14.5311 40.37 14.2867 39.6367 14.2867C38.9033 14.2867 38.2922 14.5311 37.8033 15.02L37.51 15.3133V9.44667C37.51 9.25111 37.4122 9.10445 37.2167 9.00667L30.47 2.11333C30.2744 1.91778 30.0789 1.82 29.8833 1.82H8.61666C7.83444 1.82 7.17444 2.08889 6.63666 2.62667C6.09889 3.16445 5.83 3.82445 5.83 4.60667V24.5533H7.29666V4.60667C7.29666 4.21556 7.41889 3.89778 7.66333 3.65334C7.90778 3.40889 8.22555 3.28667 8.61666 3.28667H29.2967V7.39333C29.2967 8.17556 29.5656 8.83556 30.1033 9.37334C30.6411 9.91111 31.2522 10.18 31.9367 10.18H36.0433V16.78L25.3367 27.4867C25.2389 27.5844 25.19 27.7311 25.19 27.9267L24.4567 31.3C24.3589 31.4956 24.4078 31.6911 24.6033 31.8867C24.7989 32.0822 24.9944 32.18 25.19 32.18L28.71 31.4467C28.8078 31.4467 28.9056 31.3978 29.0033 31.3L36.0433 24.1133V33.5H22.4033C22.2078 33.5 22.0367 33.5733 21.89 33.72C21.7433 33.8667 21.67 34.0378 21.67 34.2333V36.2867H18.2967V37.6067H21.67V39.66C21.67 39.8556 21.7433 40.0267 21.89 40.1733C22.0367 40.32 22.2078 40.3933 22.4033 40.3933H41.6167C41.8122 40.3933 41.9833 40.32 42.13 40.1733C42.2767 40.0267 42.35 39.8556 42.35 39.66V34.2333C42.35 34.0378 42.2767 33.8667 42.13 33.72C41.9833 33.5733 41.8122 33.5 41.6167 33.5ZM30.6167 7.39333V4.16667L35.1633 8.71333H31.9367C31.5456 8.71333 31.2278 8.59111 30.9833 8.34667C30.7389 8.10222 30.6167 7.78445 30.6167 7.39333ZM26.8033 27.9267L37.51 17.22L39.27 19.1267L28.5633 29.8333L26.8033 27.9267ZM39.71 15.6067C40.1989 15.6067 40.5656 15.8756 40.81 16.4133C41.0544 16.9511 40.9811 17.4156 40.59 17.8067L40.2967 18.1L38.39 16.34L38.83 16.0467C39.0256 15.7533 39.3189 15.6067 39.71 15.6067ZM26.2167 29.3933L27.0967 30.2733L25.9233 30.5667L26.2167 29.3933ZM40.8833 38.9267H22.99V34.82H24.4567V36.2867H25.7767V34.82H27.2433V36.2867H28.5633V34.82H29.8833V36.2867H31.35V34.82H32.67V36.2867H33.99V34.82H35.4567V36.2867H36.7767V34.82H38.2433V36.2867H39.5633V34.82H40.8833V38.9267Z" fill="#386DFF"/>
</g>
<defs>
<clipPath id="clip0_1_461">
<rect width="44.02" height="44" fill="white" transform="matrix(1 0 0 -1 0.979996 44.5)"/>
</clipPath>
</defs>
</svg>
