<svg width="9" height="9" viewBox="0 0 9 9" fill="none" xmlns="http://www.w3.org/2000/svg">
<path id="Vector" d="M4.5 0C5.74274 0 6.86764 0.503536 7.68186 1.31814C8.49609 2.13236 9 3.25764 9 4.5C9 5.74236 8.49646 6.86764 7.68186 7.68186C6.86764 8.49609 5.74236 9 4.5 9C3.25726 9 2.13236 8.49646 1.31814 7.68186C0.503536 6.86764 0 5.74236 0 4.5C0 3.25764 0.503536 2.13236 1.31814 1.31814C2.13236 0.503536 3.25726 0 4.5 0ZM4.1321 2.28088C4.1321 2.14486 4.24236 2.0346 4.37838 2.0346C4.5144 2.0346 4.62465 2.14486 4.62465 2.28088V4.55418L6.33493 5.56807C6.45163 5.63703 6.49065 5.78783 6.4217 5.9049C6.35274 6.0216 6.20195 6.06062 6.08487 5.99166L4.26661 4.91374C4.18666 4.87282 4.1321 4.78985 4.1321 4.69437V2.28088ZM7.33367 1.66633C6.60849 0.941147 5.60672 0.492549 4.5 0.492549C3.39328 0.492549 2.39151 0.941147 1.66633 1.66633C0.941147 2.39151 0.492549 3.39328 0.492549 4.5C0.492549 5.60672 0.941147 6.60849 1.66633 7.33367C2.39151 8.05885 3.39328 8.50745 4.5 8.50745C5.60672 8.50745 6.60849 8.05885 7.33367 7.33367C8.05885 6.60849 8.50745 5.60672 8.50745 4.5C8.50745 3.39328 8.05885 2.39151 7.33367 1.66633Z" fill="#030F41"/>
</svg>
