<svg width="24" height="146" viewBox="0 0 24 146" fill="none" xmlns="http://www.w3.org/2000/svg">
<g id="Group 1000014970">
<rect id="pseudo" x="11" y="96" width="1" height="50" fill="#2AAA94"/>
<rect id="pseudo_2" x="11" width="1" height="50" fill="#2AAA94"/>
<circle id="Ellipse 8320" cx="12" cy="73" r="12" fill="#81C7A2"/>
<path id="&#226;&#128;&#156;" d="M8 76V74.1579C8 73.5984 8.09655 73.0049 8.28965 72.3772C8.4894 71.7427 8.77572 71.1321 9.14859 70.5453C9.52813 69.9518 9.98424 69.4366 10.5169 69L11.7954 70.0643C11.3759 70.6784 11.0096 71.3197 10.6967 71.9883C10.3904 72.6501 10.2373 73.3596 10.2373 74.117V76H8ZM13.1137 76V74.1579C13.1137 73.5984 13.2103 73.0049 13.4034 72.3772C13.6031 71.7427 13.8895 71.1321 14.2623 70.5453C14.6419 69.9518 15.098 69.4366 15.6307 69L16.9091 70.0643C16.4896 70.6784 16.1234 71.3197 15.8104 71.9883C15.5041 72.6501 15.351 73.3596 15.351 74.117V76H13.1137Z" fill="white"/>
</g>
</svg>
