<svg width="188" height="25" viewBox="0 0 188 25" fill="none" xmlns="http://www.w3.org/2000/svg">
<path id="Vector" d="M186.771 0.413368C125.993 14.6886 63.0191 21.861 0.835843 16.3448C0.705364 16.3449 0.57931 16.3921 0.480878 16.4778C0.382447 16.5635 0.318278 16.6818 0.300169 16.811C0.282075 16.9402 0.311264 17.0716 0.382368 17.181C0.453472 17.2904 0.561702 17.3705 0.687147 17.4064C63.0345 30.4655 127.844 24.9292 187.073 1.48453C187.144 1.46468 187.209 1.4312 187.267 1.38595C187.324 1.34069 187.372 1.28459 187.408 1.22083C187.443 1.15706 187.466 1.08685 187.475 1.01427C187.483 0.941698 187.478 0.868183 187.458 0.79785C187.438 0.727516 187.404 0.661766 187.359 0.604381C187.314 0.546996 187.258 0.499073 187.194 0.463374C187.13 0.427674 187.06 0.404867 186.987 0.396287C186.915 0.387708 186.841 0.393521 186.771 0.413368Z" fill="#FFD600"/>
</svg>
