<svg width="39" height="38" viewBox="0 0 39 38" fill="none" xmlns="http://www.w3.org/2000/svg">
<g id="Icon" clip-path="url(#clip0_1_912)">
<path id="Vector" d="M29.6074 23.94C30.0296 23.4334 30.3674 22.8423 30.6208 22.1667C30.8741 21.4911 31.0008 20.8156 31.0008 20.14C31.0008 19.0423 30.6208 18.1134 29.8608 17.3534C29.1008 16.5934 28.1719 16.2134 27.0741 16.2134C25.9763 16.2134 25.0474 16.5934 24.2874 17.3534C23.5274 18.1134 23.1474 19.0634 23.1474 20.2034C23.1474 21.3434 23.443 22.3778 24.0341 23.3067L24.4141 23.94C23.4852 23.94 22.6408 24.2356 21.8808 24.8267C21.543 24.7423 21.2052 24.7 20.8674 24.7H20.2341C20.6563 24.3623 20.9941 23.94 21.2474 23.4334C22.0919 22.0823 22.5141 20.52 22.5141 18.7467C22.5141 17.8178 22.2819 16.9311 21.8174 16.0867C21.353 15.2423 20.6985 14.5667 19.8541 14.06C19.0096 13.5534 18.0808 13.3 17.0674 13.3C16.0541 13.3 15.1252 13.5534 14.2808 14.06C13.4363 14.5667 12.7819 15.2423 12.3174 16.0867C11.853 16.9311 11.6208 17.8178 11.6208 18.7467C11.6208 20.52 12.043 22.0823 12.8874 23.4334C13.1408 23.8556 13.4785 24.2778 13.9008 24.7H13.2674C12.9296 24.7 12.5919 24.7423 12.2541 24.8267C11.4941 24.2356 10.6496 23.94 9.72075 23.94L10.1008 23.3067C10.6919 22.3778 10.9874 21.3434 10.9874 20.2034C10.9874 19.0634 10.6074 18.1134 9.84742 17.3534C9.08742 16.5934 8.15853 16.2134 7.06075 16.2134C5.96298 16.2134 5.03409 16.5934 4.27409 17.3534C3.51409 18.1134 3.13409 19.0423 3.13409 20.14C3.13409 20.8156 3.26076 21.4911 3.51409 22.1667C3.76742 22.8423 4.1052 23.4334 4.52742 23.94C3.3452 23.94 2.35298 24.32 1.55076 25.08C0.748533 25.84 0.347422 26.7689 0.347422 27.8667V32.4267C0.347422 32.5956 0.389644 32.7434 0.474088 32.87C0.558533 32.9967 0.685199 33.06 0.854088 33.06H7.44075V36.86C7.44075 37.0289 7.50409 37.1556 7.63075 37.24C7.75742 37.3245 7.9052 37.3667 8.07409 37.3667H26.0608C26.2296 37.3667 26.3774 37.3245 26.5041 37.24C26.6308 37.1556 26.6941 37.0289 26.6941 36.86V33.06H33.2808C33.4496 33.06 33.5763 32.9967 33.6608 32.87C33.7452 32.7434 33.7874 32.5956 33.7874 32.4267V27.8667C33.7874 26.7689 33.3863 25.84 32.5841 25.08C31.7819 24.32 30.7896 23.94 29.6074 23.94ZM24.2874 20.14C24.2874 19.38 24.5619 18.7256 25.1108 18.1767C25.6596 17.6278 26.3141 17.3534 27.0741 17.3534C27.8341 17.3534 28.4885 17.6278 29.0374 18.1767C29.5863 18.7256 29.8608 19.4223 29.8608 20.2667C29.8608 21.1111 29.6496 21.8711 29.2274 22.5467C28.7208 23.4756 28.003 23.94 27.0741 23.94C26.1452 23.94 25.4274 23.4756 24.9208 22.5467C24.4985 21.8711 24.2874 21.0689 24.2874 20.14ZM17.0674 14.5667C18.2496 14.5667 19.263 14.9678 20.1074 15.77C20.9519 16.5723 21.3741 17.5645 21.3741 18.7467V18.8734C20.4452 18.7889 19.643 18.62 18.9674 18.3667C18.123 18.0289 17.2363 17.5223 16.3074 16.8467C16.1385 16.6778 15.9274 16.6778 15.6741 16.8467L12.7608 18.4934C12.8452 17.3956 13.3096 16.4667 14.1541 15.7067C14.9985 14.9467 15.9696 14.5667 17.0674 14.5667ZM13.9008 22.8C13.3941 21.9556 13.0563 20.9845 12.8874 19.8867L15.9274 17.9867C16.8563 18.6623 17.7852 19.1689 18.7141 19.5067C19.3896 19.76 20.2341 19.9711 21.2474 20.14C21.0785 21.1534 20.7408 22.04 20.2341 22.8C19.4741 24.0667 18.4185 24.7 17.0674 24.7C15.7163 24.7 14.6608 24.0667 13.9008 22.8ZM4.27409 20.14C4.27409 19.38 4.54853 18.7256 5.09742 18.1767C5.64631 17.6278 6.30076 17.3534 7.06075 17.3534C7.82076 17.3534 8.4752 17.6278 9.02409 18.1767C9.57298 18.7256 9.84742 19.4223 9.84742 20.2667C9.84742 21.1111 9.63631 21.8711 9.21409 22.5467C8.70742 23.4756 7.98964 23.94 7.06075 23.94C6.13187 23.94 5.41409 23.4756 4.90742 22.5467C4.4852 21.8711 4.27409 21.0689 4.27409 20.14ZM1.48742 31.92V27.8667C1.48742 27.1067 1.78298 26.4734 2.37409 25.9667C2.9652 25.46 3.68298 25.2067 4.52742 25.2067H9.72075C10.0585 25.2067 10.3541 25.2489 10.6074 25.3334C9.67853 25.7556 8.91853 26.41 8.32742 27.2967C7.73631 28.1834 7.44075 29.1334 7.44075 30.1467V31.92H1.48742ZM25.5541 36.2267H22.5141V32.5534C22.5141 32.3845 22.4508 32.2367 22.3241 32.11C22.1974 31.9834 22.0496 31.92 21.8808 31.92C21.7119 31.92 21.5852 31.9834 21.5008 32.11C21.4163 32.2367 21.3741 32.3845 21.3741 32.5534V36.2267H12.7608V32.5534C12.7608 32.3845 12.7185 32.2367 12.6341 32.11C12.5496 31.9834 12.423 31.92 12.2541 31.92C12.0852 31.92 11.9374 31.9834 11.8108 32.11C11.6841 32.2367 11.6208 32.3845 11.6208 32.5534V36.2267H8.58076V30.1467C8.58076 28.9645 9.0452 27.9511 9.97409 27.1067C10.903 26.2623 12.0008 25.84 13.2674 25.84H20.8674C22.1341 25.84 23.2319 26.2623 24.1608 27.1067C25.0896 27.9511 25.5541 28.9645 25.5541 30.1467V36.2267ZM32.6474 31.92H26.6941V30.1467C26.6941 29.1334 26.3985 28.1834 25.8074 27.2967C25.2163 26.41 24.4563 25.7556 23.5274 25.3334C23.7808 25.2489 24.0763 25.2067 24.4141 25.2067H29.6074C30.4519 25.2067 31.1696 25.46 31.7608 25.9667C32.3519 26.4734 32.6474 27.1067 32.6474 27.8667V31.92ZM13.7741 7.7267L13.2674 10.8934C13.2674 11.1467 13.3519 11.3367 13.5208 11.4634C13.6896 11.59 13.9008 11.6111 14.1541 11.5267L17.0674 10.0067L19.9808 11.5267C20.2341 11.6111 20.4452 11.59 20.6141 11.4634C20.783 11.3367 20.8674 11.1467 20.8674 10.8934L20.3608 7.7267L22.6408 5.32003C22.8096 5.15115 22.8519 4.96114 22.7674 4.75003C22.683 4.53892 22.5141 4.39114 22.2608 4.3067L19.0941 3.80003L17.5741 0.8867C17.4896 0.717812 17.3208 0.633366 17.0674 0.633366C16.8141 0.633366 16.6452 0.717812 16.5608 0.8867L15.0408 3.80003L11.8741 4.3067C11.6208 4.39114 11.4519 4.53892 11.3674 4.75003C11.283 4.96114 11.3252 5.15115 11.4941 5.32003L13.7741 7.7267ZM15.5474 4.94003C15.7163 4.85559 15.843 4.72892 15.9274 4.56003L17.0674 2.4067L18.2074 4.56003C18.2919 4.72892 18.4185 4.85559 18.5874 4.94003L20.9941 5.32003L19.3474 7.09337C19.1785 7.17781 19.0941 7.3467 19.0941 7.60003L19.4741 9.88003L17.3208 8.8667C17.1519 8.78226 16.983 8.78226 16.8141 8.8667L14.6608 9.88003L15.0408 7.60003C15.0408 7.3467 14.9563 7.17781 14.7874 7.09337L13.1408 5.32003L15.5474 4.94003ZM2.75409 8.61337L2.37409 10.8934C2.37409 11.1467 2.47964 11.3367 2.69075 11.4634C2.90187 11.59 3.09187 11.6111 3.26076 11.5267L5.28742 10.5134L7.31409 11.5267C7.48298 11.6111 7.67298 11.59 7.88409 11.4634C8.0952 11.3367 8.20076 11.1467 8.20076 10.8934L7.82076 8.61337L9.34075 7.09337C9.50964 6.92448 9.57298 6.71337 9.53076 6.46003C9.48853 6.2067 9.34075 6.08003 9.08742 6.08003L6.80742 5.70003L5.79409 3.67337C5.70964 3.50448 5.54075 3.42003 5.28742 3.42003C5.03409 3.42003 4.8652 3.50448 4.78076 3.67337L3.76742 5.70003L1.48742 6.08003C1.23409 6.08003 1.08631 6.2067 1.04409 6.46003C1.00187 6.71337 1.0652 6.92448 1.23409 7.09337L2.75409 8.61337ZM4.14742 6.84003C4.40075 6.75559 4.56964 6.62892 4.65409 6.46003L5.28742 5.19337L5.92075 6.46003C6.0052 6.62892 6.13187 6.75559 6.30076 6.84003L7.69409 7.09337L6.80742 8.1067C6.63853 8.19114 6.55409 8.31781 6.55409 8.4867L6.80742 9.88003L5.54075 9.37337C5.37187 9.28892 5.20298 9.28892 5.03409 9.37337L3.76742 9.88003L4.02075 8.4867C4.02075 8.31781 3.93631 8.19114 3.76742 8.1067L2.88075 7.09337L4.14742 6.84003ZM26.3141 8.61337L25.9341 10.8934C25.9341 11.1467 26.0396 11.3367 26.2508 11.4634C26.4619 11.59 26.6519 11.6111 26.8208 11.5267L28.8474 10.5134L30.8741 11.5267C31.043 11.6111 31.233 11.59 31.4441 11.4634C31.6552 11.3367 31.7608 11.1467 31.7608 10.8934L31.3808 8.61337L32.9008 7.09337C33.0696 6.92448 33.133 6.71337 33.0908 6.46003C33.0485 6.2067 32.9008 6.08003 32.6474 6.08003L30.3674 5.70003L29.3541 3.67337C29.2696 3.50448 29.1008 3.42003 28.8474 3.42003C28.5941 3.42003 28.4252 3.50448 28.3408 3.67337L27.3274 5.70003L25.0474 6.08003C24.7941 6.08003 24.6463 6.2067 24.6041 6.46003C24.5619 6.71337 24.6252 6.92448 24.7941 7.09337L26.3141 8.61337ZM27.8341 6.84003C28.003 6.75559 28.1296 6.62892 28.2141 6.46003L28.8474 5.19337L29.4808 6.46003C29.5652 6.62892 29.7341 6.75559 29.9874 6.84003L31.2541 7.09337L30.3674 8.1067C30.1985 8.19114 30.1141 8.31781 30.1141 8.4867L30.3674 9.88003L29.1008 9.37337C28.9319 9.28892 28.763 9.28892 28.5941 9.37337L27.3274 9.88003L27.5808 8.4867C27.5808 8.31781 27.4963 8.19114 27.3274 8.1067L26.4408 7.09337L27.8341 6.84003Z" fill="#0E2A46"/>
</g>
<defs>
<clipPath id="clip0_1_912">
<rect width="38.02" height="38" fill="white" transform="matrix(1 0 0 -1 0.337421 38)"/>
</clipPath>
</defs>
</svg>
