<svg width="39" height="38" viewBox="0 0 39 38" fill="none" xmlns="http://www.w3.org/2000/svg">
<g id="Icon" clip-path="url(#clip0_1_900)">
<path id="Vector" d="M28.35 35.34C27.8433 32.8067 27.3789 30.4844 26.9567 28.3733L26.7033 27.2333C26.45 26.0511 25.8167 25.2067 24.8033 24.7C24.55 24.5311 24.2967 24.4044 24.0433 24.32L19.7367 22.8L18.3433 21.9133V20.7733C19.3567 20.1822 20.1589 19.4011 20.75 18.43C21.3411 17.4589 21.7211 16.4244 21.89 15.3267C22.7344 15.3267 23.3889 15.01 23.8533 14.3767C24.3178 13.7433 24.3811 13.0467 24.0433 12.2867V7.85333C24.0433 6.41778 23.7055 5.23556 23.03 4.30667C22.6922 3.8 22.2278 3.42 21.6367 3.16667C20.37 1.56222 18.6389 0.57 16.4433 0.189999C14.2478 -0.189999 12.1789 0.084446 10.2367 1.01333C9.64555 1.35111 9.05443 1.77333 8.46332 2.28C8.37888 2.36444 8.31555 2.49111 8.27332 2.66C8.2311 2.82889 8.27332 2.95555 8.39999 3.04C8.52666 3.12444 8.65332 3.18778 8.77999 3.23C8.90666 3.27222 9.05443 3.20889 9.22332 3.04C10.4055 2.11111 11.7567 1.52 13.2767 1.26667C14.7967 1.01333 16.2322 1.14 17.5833 1.64667C18.9344 2.15334 20.0322 2.91333 20.8767 3.92667C20.9611 4.01111 21.0455 4.05333 21.13 4.05333C21.4678 4.22222 21.7633 4.47556 22.0167 4.81334C22.6078 5.57333 22.9033 6.58667 22.9033 7.85333V11.2733C22.5655 11.1889 22.2278 11.1467 21.89 11.1467V9.24667C21.89 9.07778 21.8055 8.90889 21.6367 8.74C21.4678 8.57111 21.2989 8.44444 21.13 8.36C20.37 8.36 19.7789 7.98 19.3567 7.22C19.1878 6.88222 18.9344 6.69222 18.5967 6.65C18.2589 6.60778 17.9633 6.71333 17.71 6.96667C16.5278 7.89556 15.2189 8.48667 13.7833 8.74C12.6855 8.99333 11.5455 9.03556 10.3633 8.86667C9.60332 8.78222 8.92777 8.95111 8.33666 9.37333C7.74555 9.79556 7.40777 10.3867 7.32332 11.1467C6.9011 11.1467 6.5211 11.1889 6.18332 11.2733V10.64C6.18332 9.45778 6.22555 8.57111 6.30999 7.98C6.56332 6.88222 6.98555 5.86889 7.57666 4.94C7.6611 4.77111 7.68221 4.62333 7.63999 4.49667C7.59777 4.37 7.51332 4.26445 7.38666 4.18C7.25999 4.09555 7.13332 4.07444 7.00666 4.11667C6.87999 4.15889 6.77443 4.22222 6.68999 4.30667C5.92999 5.40445 5.46555 6.58667 5.29666 7.85333C5.12777 8.61333 5.08555 9.62667 5.16999 10.8933L5.04332 12.2867C4.70555 13.0467 4.78999 13.7433 5.29666 14.3767C5.80332 15.01 6.47888 15.3267 7.32332 15.3267C7.49221 16.9311 8.12555 18.3244 9.22332 19.5067L9.34999 19.6333C9.85666 20.14 10.4055 20.5622 10.9967 20.9V21.9133L9.60332 22.8L6.56332 23.94C5.29666 24.3622 4.57888 24.6156 4.40999 24.7L4.28332 24.8267C3.43888 25.3333 2.88999 26.0511 2.63666 26.98L0.98999 35.34C0.98999 35.5933 0.98999 35.8467 0.98999 36.1C1.07443 36.6911 1.30666 37.1556 1.68666 37.4933C2.06666 37.8311 2.59443 38 3.26999 38H18.5967C18.7655 38 18.8922 37.9367 18.9767 37.81C19.0611 37.6833 19.1033 37.5567 19.1033 37.43C19.1033 37.3033 19.0611 37.1767 18.9767 37.05C18.8922 36.9233 18.7655 36.86 18.5967 36.86H7.19666V31.7933C7.19666 31.6244 7.13332 31.4978 7.00666 31.4133C6.87999 31.3289 6.75332 31.2867 6.62666 31.2867C6.49999 31.2867 6.37332 31.3289 6.24666 31.4133C6.11999 31.4978 6.05666 31.6244 6.05666 31.7933V36.86H3.26999C2.3411 36.86 1.9611 36.4378 2.12999 35.5933L3.39666 29.0067C3.64999 27.8244 3.81888 27.1489 3.90332 26.98V26.8533C4.15666 26.2622 4.6211 25.7978 5.29666 25.46L7.70332 24.7L9.09666 27.1067C9.09666 27.2756 9.1811 27.3811 9.34999 27.4233C9.51888 27.4656 9.66666 27.4444 9.79332 27.36C9.91999 27.2756 10.0044 27.17 10.0467 27.0433C10.0889 26.9167 10.0678 26.7689 9.98332 26.6L8.71666 24.32L9.60332 24.0667L14.0367 32.3C14.2055 32.4689 14.4167 32.5533 14.67 32.5533C14.9233 32.5533 15.0922 32.4689 15.1767 32.3L19.7367 24.0667L20.6233 24.32L16.0633 32.68C15.7255 33.1867 15.2611 33.44 14.67 33.44C14.0789 33.44 13.6144 33.1867 13.2767 32.68L11.25 28.88C11.1655 28.7956 11.06 28.7322 10.9333 28.69C10.8067 28.6478 10.6589 28.6478 10.49 28.69C10.3211 28.7322 10.2155 28.8378 10.1733 29.0067C10.1311 29.1756 10.1522 29.3022 10.2367 29.3867L12.2633 33.1867C12.6011 33.7778 13.0867 34.1789 13.72 34.39C14.3533 34.6011 14.9867 34.6011 15.62 34.39C16.2533 34.1789 16.7389 33.7778 17.0767 33.1867L21.6367 24.7L23.79 25.46L24.6767 25.84C25.0989 26.2622 25.3944 26.7267 25.5633 27.2333L27.21 35.8467C27.2944 36.5222 26.9144 36.86 26.07 36.86H23.2833V31.7933C23.2833 31.6244 23.22 31.4978 23.0933 31.4133C22.9667 31.3289 22.84 31.2867 22.7133 31.2867C22.5867 31.2867 22.46 31.3289 22.3333 31.4133C22.2067 31.4978 22.1433 31.6244 22.1433 31.7933V36.86H21.13C20.9611 36.86 20.8344 36.9233 20.75 37.05C20.6655 37.1767 20.6233 37.3033 20.6233 37.43C20.6233 37.5567 20.6655 37.6833 20.75 37.81C20.8344 37.9367 20.9611 38 21.13 38H26.07C26.7455 38 27.2733 37.8311 27.6533 37.4933C28.0333 37.1556 28.2655 36.6911 28.35 36.1C28.35 35.8467 28.35 35.5933 28.35 35.34ZM21.89 12.2867C22.2278 12.2022 22.5233 12.2656 22.7767 12.4767C23.03 12.6878 23.1567 12.9411 23.1567 13.2367C23.1567 13.5322 23.03 13.7644 22.7767 13.9333C22.5233 14.1022 22.2278 14.1867 21.89 14.1867V12.2867ZM7.19666 14.1867C6.85888 14.1867 6.58443 14.1022 6.37332 13.9333C6.16221 13.7644 6.05666 13.5322 6.05666 13.2367C6.05666 12.9411 6.16221 12.6878 6.37332 12.4767C6.58443 12.2656 6.85888 12.2022 7.19666 12.2867V14.1867ZM10.2367 10.0067C11.5878 10.1756 12.8544 10.1333 14.0367 9.88C15.6411 9.54222 17.0767 8.82445 18.3433 7.72667C18.9344 8.74 19.7367 9.33111 20.75 9.5V11.5267L20.1167 11.9067C19.8633 11.4844 19.4833 11.2733 18.9767 11.2733H16.4433C16.1055 11.2733 15.8311 11.3367 15.62 11.4633C15.4089 11.59 15.2189 11.8222 15.05 12.16H14.0367C13.9522 11.8222 13.7833 11.59 13.53 11.4633C13.2767 11.3367 13.0233 11.2733 12.77 11.2733H10.11C9.60332 11.2733 9.22332 11.4844 8.96999 11.9067L8.33666 11.5267C8.33666 11.02 8.52666 10.6189 8.90666 10.3233C9.28666 10.0278 9.72999 9.92222 10.2367 10.0067ZM19.3567 12.6667V13.8067C19.3567 14.06 19.2722 14.2711 19.1033 14.44C18.9344 14.6089 18.7233 14.6933 18.47 14.6933H16.95C16.6967 14.6933 16.4855 14.6089 16.3167 14.44C16.1478 14.2711 16.0633 14.06 16.0633 13.8067V12.6667C16.0633 12.4133 16.19 12.2867 16.4433 12.2867H18.9767C19.23 12.2867 19.3567 12.4133 19.3567 12.6667ZM13.0233 12.6667V13.8067C13.0233 14.06 12.9389 14.2711 12.77 14.44C12.6011 14.6089 12.39 14.6933 12.1367 14.6933H10.7433C10.49 14.6933 10.2789 14.6089 10.11 14.44C9.9411 14.2711 9.85666 14.06 9.85666 13.8067V12.6667C9.85666 12.4133 9.9411 12.2867 10.11 12.2867H12.77C12.9389 12.2867 13.0233 12.4133 13.0233 12.6667ZM9.85666 18.62C9.1811 17.7756 8.71666 16.8889 8.46332 15.96C8.37888 15.3689 8.33666 14.5667 8.33666 13.5533V12.7933L8.71666 13.0467V13.8067C8.71666 14.3133 8.90666 14.7567 9.28666 15.1367C9.66666 15.5167 10.1522 15.7067 10.7433 15.7067H12.1367C12.7278 15.7067 13.2133 15.5167 13.5933 15.1367C13.9733 14.7567 14.1633 14.3133 14.1633 13.8067V13.1733H14.9233V13.8067C14.9233 14.3133 15.1344 14.7567 15.5567 15.1367C15.9789 15.5167 16.4433 15.7067 16.95 15.7067H18.47C18.9767 15.7067 19.42 15.5167 19.8 15.1367C20.18 14.7567 20.37 14.3133 20.37 13.8067V13.0467L20.75 12.7933V14.44C20.75 16.1289 20.1589 17.5856 18.9767 18.81C17.7944 20.0344 16.3167 20.6889 14.5433 20.7733C14.1211 20.7733 13.6989 20.7311 13.2767 20.6467L12.8967 20.52C11.7144 20.1822 10.7011 19.5489 9.85666 18.62ZM14.67 24.8267L12.1367 21.9133V21.4067C13.3189 21.8289 14.5011 21.9556 15.6833 21.7867L16.4433 21.5333L17.2033 21.4067V21.9133L14.67 24.8267ZM15.3033 26.7267L15.05 27.2333H14.29L14.0367 26.7267L14.67 26.3467L15.3033 26.7267ZM13.15 28.2467L12.8967 27.6133L13.15 27.4867L13.4033 27.8667L13.15 28.2467ZM12.2633 26.6L10.6167 23.56L11.5033 22.9267L13.7833 25.5867L12.2633 26.6ZM14.67 31.0333L13.91 29.64L14.29 28.3733H15.05L15.43 29.64L14.67 31.0333ZM16.19 28.2467L15.9367 27.8667L16.19 27.4867L16.4433 27.6133L16.19 28.2467ZM17.0767 26.6C16.6544 26.3467 16.1478 26.0089 15.5567 25.5867L17.8367 22.9267L18.7233 23.56L17.0767 26.6Z" fill="#0E2A46"/>
</g>
<defs>
<clipPath id="clip0_1_900">
<rect width="38.02" height="38" fill="white" transform="matrix(1 0 0 -1 0.97998 38)"/>
</clipPath>
</defs>
</svg>
