<svg width="39" height="38" viewBox="0 0 39 38" fill="none" xmlns="http://www.w3.org/2000/svg">
<g id="Icon" clip-path="url(#clip0_1_918)">
<path id="Vector" d="M36.4393 6.33334H33.6527V4.94C33.6527 4.77111 33.5893 4.62334 33.4627 4.49667C33.336 4.37 33.1882 4.30667 33.0193 4.30667C30.2327 4.30667 27.9527 4.43334 26.1793 4.68667C24.7438 4.85556 23.0971 5.19334 21.2393 5.7V5.57334C21.2393 4.81334 20.986 4.18 20.4793 3.67334C19.9727 3.16667 19.3393 2.91334 18.5793 2.91334C17.8193 2.91334 17.186 3.16667 16.6793 3.67334C16.1727 4.18 15.9193 4.81334 15.9193 5.57334V5.7C14.0616 5.19334 12.4149 4.85556 10.9793 4.68667C9.20601 4.43334 6.92601 4.30667 4.13934 4.30667C3.97045 4.30667 3.82268 4.37 3.69601 4.49667C3.56934 4.62334 3.50601 4.77111 3.50601 4.94V6.33334H0.719344C0.550455 6.33334 0.423788 6.39667 0.339344 6.52334C0.254899 6.65 0.212677 6.79778 0.212677 6.96667V32.5533C0.212677 32.7222 0.254899 32.87 0.339344 32.9967C0.423788 33.1233 0.550455 33.1867 0.719344 33.1867H15.4127C15.4127 33.7778 15.6027 34.2422 15.9827 34.58C16.3627 34.9178 16.806 35.0867 17.3127 35.0867H19.846C20.4371 35.0867 20.9016 34.9178 21.2393 34.58C21.5771 34.2422 21.746 33.7778 21.746 33.1867H36.4393C36.6082 33.1867 36.7349 33.1233 36.8193 32.9967C36.9038 32.87 36.946 32.7222 36.946 32.5533V6.96667C36.946 6.79778 36.9038 6.65 36.8193 6.52334C36.7349 6.39667 36.6082 6.33334 36.4393 6.33334ZM32.5127 5.44667V29.1333C26.7705 29.1333 22.3371 29.8933 19.2127 31.4133V23.56H30.7393C30.9927 23.56 31.1616 23.4967 31.246 23.37C31.3305 23.2433 31.3727 23.0956 31.3727 22.9267C31.2882 21.9978 30.9927 21.1956 30.486 20.52C29.9793 19.8444 29.346 19.3378 28.586 19C29.0927 18.4933 29.346 17.8811 29.346 17.1633C29.346 16.4456 29.0927 15.8122 28.586 15.2633C28.0793 14.7144 27.446 14.44 26.686 14.44L26.1793 14.5667C25.6727 13.9756 25.0816 13.5533 24.406 13.3C24.9971 12.7089 25.2927 12.0544 25.2927 11.3367C25.2927 10.6189 25.0182 9.98556 24.4693 9.43667C23.9205 8.88778 23.266 8.61334 22.506 8.61334L22.126 8.74C21.7038 8.14889 21.1549 7.72667 20.4793 7.47334L20.8593 6.96667C22.886 6.46 24.5327 6.08 25.7993 5.82667C27.5727 5.65778 29.8105 5.53111 32.5127 5.44667ZM14.2727 21.0267C13.766 20.0978 13.0482 19.4222 12.1193 19C12.4571 18.6622 12.6682 18.24 12.7527 17.7333H15.7927C15.8771 18.24 16.1305 18.6622 16.5527 19C15.5393 19.4222 14.7793 20.0978 14.2727 21.0267ZM8.69934 17.1C8.69934 16.6778 8.84712 16.34 9.14268 16.0867C9.43823 15.8333 9.79712 15.7067 10.2193 15.7067C10.6416 15.7067 11.0005 15.8333 11.296 16.0867C11.5916 16.34 11.7393 16.6778 11.7393 17.1C11.7393 17.5222 11.5916 17.8811 11.296 18.1767C11.0005 18.4722 10.6416 18.62 10.2193 18.62C9.79712 18.62 9.43823 18.4722 9.14268 18.1767C8.84712 17.8811 8.69934 17.5222 8.69934 17.1ZM12.7527 11.4C12.7527 10.9778 12.9005 10.6189 13.196 10.3233C13.4916 10.0278 13.8505 9.88 14.2727 9.88C14.6949 9.88 15.0538 10.0278 15.3493 10.3233C15.6449 10.6189 15.7927 10.9778 15.7927 11.4C15.7927 11.8222 15.6449 12.16 15.3493 12.4133C15.0538 12.6667 14.6949 12.7933 14.2727 12.7933C13.8505 12.7933 13.4916 12.6667 13.196 12.4133C12.9005 12.16 12.7527 11.8222 12.7527 11.4ZM18.5793 8.23334C19.5082 8.23334 20.3105 8.52889 20.986 9.12C20.3949 9.54222 20.0571 10.0911 19.9727 10.7667H16.9327C16.7638 10.1756 16.4682 9.66889 16.046 9.24667C16.7216 8.57112 17.566 8.23334 18.5793 8.23334ZM22.506 21.0267C21.9993 20.0978 21.2816 19.4222 20.3527 19C20.6905 18.6622 20.9438 18.24 21.1127 17.7333H24.026C24.1949 18.24 24.4482 18.6622 24.786 19C23.7727 19.4222 23.0127 20.0978 22.506 21.0267ZM18.4527 18.62C18.0305 18.62 17.6716 18.4722 17.376 18.1767C17.0805 17.8811 16.9327 17.5222 16.9327 17.1C16.9327 16.6778 17.0805 16.34 17.376 16.0867C17.6716 15.8333 18.0305 15.7067 18.4527 15.7067C18.8749 15.7067 19.2338 15.8333 19.5293 16.0867C19.8249 16.34 19.9727 16.6778 19.9727 17.1C19.9727 17.5222 19.8249 17.8811 19.5293 18.1767C19.2338 18.4722 18.8749 18.62 18.4527 18.62ZM16.1727 13.3C16.5949 12.8778 16.8482 12.4133 16.9327 11.9067H17.946V14.44V14.5667C17.4393 13.9756 16.8482 13.5533 16.1727 13.3ZM19.9727 11.9067C20.0571 12.4133 20.2682 12.8778 20.606 13.3C20.0993 13.5533 19.6349 13.8911 19.2127 14.3133V11.9067H19.9727ZM26.686 19.8867C27.446 19.8867 28.1427 20.1189 28.776 20.5833C29.4093 21.0478 29.8527 21.6178 30.106 22.2933H23.266C23.5193 21.6178 23.9627 21.0478 24.596 20.5833C25.2293 20.1189 25.926 19.8867 26.686 19.8867ZM26.686 18.62C26.2638 18.62 25.9049 18.4722 25.6093 18.1767C25.3138 17.8811 25.166 17.5222 25.166 17.1C25.166 16.6778 25.3138 16.34 25.6093 16.0867C25.9049 15.8333 26.2638 15.7067 26.686 15.7067C27.1082 15.7067 27.4671 15.8333 27.7627 16.0867C28.0582 16.34 28.206 16.6778 28.206 17.1C28.206 17.5222 28.0582 17.8811 27.7627 18.1767C27.4671 18.4722 27.1082 18.62 26.686 18.62ZM24.026 16.5933H21.1127C20.9438 15.9178 20.606 15.4111 20.0993 15.0733C20.7749 14.3978 21.5982 14.06 22.5693 14.06C23.5405 14.06 24.3638 14.3978 25.0393 15.0733C24.5327 15.4111 24.1949 15.9178 24.026 16.5933ZM22.506 12.7933C22.0838 12.7933 21.7249 12.6667 21.4293 12.4133C21.1338 12.16 20.986 11.8222 20.986 11.4C20.986 10.9778 21.1338 10.6189 21.4293 10.3233C21.7249 10.0278 22.0838 9.88 22.506 9.88C22.9282 9.88 23.2871 10.0278 23.5827 10.3233C23.8782 10.6189 24.026 10.9778 24.026 11.4C24.026 11.8222 23.8782 12.16 23.5827 12.4133C23.2871 12.6667 22.9282 12.7933 22.506 12.7933ZM16.806 15.0733C16.2993 15.4111 15.9616 15.9178 15.7927 16.5933H12.7527C12.6682 15.9178 12.3727 15.4111 11.866 15.0733C12.5416 14.3978 13.3649 14.06 14.336 14.06C15.3071 14.06 16.1305 14.3978 16.806 15.0733ZM10.2193 19.8867C10.9793 19.8867 11.676 20.1189 12.3093 20.5833C12.9427 21.0478 13.386 21.6178 13.6393 22.2933H6.79934C7.05268 21.6178 7.4749 21.0478 8.06601 20.5833C8.65712 20.1189 9.3749 19.8867 10.2193 19.8867ZM18.4527 19.8867C19.2127 19.8867 19.9093 20.1189 20.5427 20.5833C21.176 21.0478 21.6193 21.6178 21.8727 22.2933H15.0327C15.286 21.6178 15.7082 21.0478 16.2993 20.5833C16.8905 20.1189 17.6082 19.8867 18.4527 19.8867ZM18.5793 4.05334C19.0016 4.05334 19.3605 4.20111 19.656 4.49667C19.9516 4.79223 20.0993 5.15112 20.0993 5.57334C20.0993 5.99556 19.9516 6.35445 19.656 6.65C19.3605 6.94556 19.0016 7.09334 18.5793 7.09334C18.1571 7.09334 17.7982 6.94556 17.5027 6.65C17.2071 6.35445 17.0593 5.99556 17.0593 5.57334C17.0593 5.15112 17.2071 4.79223 17.5027 4.49667C17.7982 4.20111 18.1571 4.05334 18.5793 4.05334ZM4.64601 5.44667C7.34823 5.53111 9.58601 5.65778 11.3593 5.82667C12.626 6.08 14.2727 6.46 16.2993 6.96667L16.6793 7.47334C16.0038 7.72667 15.4127 8.14889 14.906 8.74C14.7371 8.65556 14.526 8.61334 14.2727 8.61334C13.5127 8.61334 12.8793 8.88778 12.3727 9.43667C11.866 9.98556 11.6127 10.6189 11.6127 11.3367C11.6127 12.0544 11.866 12.7089 12.3727 13.3C11.6971 13.5533 11.1482 13.9756 10.726 14.5667L10.2193 14.44C9.45934 14.44 8.8049 14.7144 8.25601 15.2633C7.70712 15.8122 7.43268 16.4456 7.43268 17.1633C7.43268 17.8811 7.72823 18.4933 8.31934 19C7.55934 19.3378 6.92601 19.8444 6.41934 20.52C5.91268 21.1956 5.5749 21.9978 5.40601 22.9267C5.40601 23.0956 5.46934 23.2433 5.59601 23.37C5.72268 23.4967 5.87045 23.56 6.03934 23.56H17.946V31.4133C14.8216 29.8933 10.3882 29.1333 4.64601 29.1333V5.44667ZM35.806 32.0467H21.2393C21.0705 32.0467 20.9227 32.11 20.796 32.2367C20.6693 32.3633 20.606 32.4689 20.606 32.5533V33.1867C20.606 33.44 20.5427 33.63 20.416 33.7567C20.2893 33.8833 20.0993 33.9467 19.846 33.9467H17.3127C17.1438 33.9467 16.9749 33.8833 16.806 33.7567C16.6371 33.63 16.5527 33.44 16.5527 33.1867V32.5533C16.5527 32.4689 16.4893 32.3633 16.3627 32.2367C16.236 32.11 16.1305 32.0467 16.046 32.0467H1.35268V7.6H3.50601V29.64C3.50601 29.8089 3.56934 29.9567 3.69601 30.0833C3.82268 30.21 3.97045 30.2733 4.13934 30.2733C10.4727 30.2733 15.2016 31.16 18.326 32.9333C18.4105 33.0178 18.4949 33.06 18.5793 33.06C18.6638 33.06 18.7482 33.0178 18.8327 32.9333C21.9571 31.16 26.686 30.2733 33.0193 30.2733C33.1882 30.2733 33.336 30.21 33.4627 30.0833C33.5893 29.9567 33.6527 29.8089 33.6527 29.64V7.6H35.806V32.0467ZM30.6127 25.5867C30.6127 25.7556 30.5493 25.9033 30.4227 26.03C30.296 26.1567 30.1482 26.22 29.9793 26.22C26.7705 26.3889 24.0682 26.8111 21.8727 27.4867H21.6193C21.366 27.4867 21.1971 27.3811 21.1127 27.17C21.0282 26.9589 21.0282 26.79 21.1127 26.6633C21.1971 26.5367 21.3238 26.4311 21.4927 26.3467C23.8571 25.6711 26.686 25.2489 29.9793 25.08C30.1482 25.08 30.2749 25.1222 30.3593 25.2067C30.4438 25.2911 30.5282 25.4178 30.6127 25.5867ZM16.046 27.1067C15.9616 27.36 15.7927 27.4867 15.5393 27.4867H15.286C13.0905 26.8111 10.3882 26.3889 7.17934 26.22C7.01045 26.22 6.86268 26.1567 6.73601 26.03C6.60934 25.9033 6.56712 25.7556 6.60934 25.5867C6.65157 25.4178 6.7149 25.2911 6.79934 25.2067C6.88379 25.1222 7.01045 25.08 7.17934 25.08C10.4727 25.2489 13.3016 25.6711 15.666 26.3467C15.8349 26.4311 15.9616 26.5367 16.046 26.6633C16.1305 26.79 16.1305 26.9378 16.046 27.1067Z" fill="#0E2A46"/>
</g>
<defs>
<clipPath id="clip0_1_918">
<rect width="38.02" height="38" fill="white" transform="matrix(1 0 0 -1 0.202667 38)"/>
</clipPath>
</defs>
</svg>
