<svg width="39" height="38" viewBox="0 0 39 38" fill="none" xmlns="http://www.w3.org/2000/svg">
<g id="Icon" clip-path="url(#clip0_1_906)">
<path id="Vector" d="M37.1467 20.5199L31.9534 11.3999C31.7845 11.1466 31.5945 10.9988 31.3834 10.9566C31.1723 10.9144 30.9823 10.9355 30.8134 11.0199L28.9134 12.1599V5.06659L25.1134 0.759914L24.8601 0.633251H10.0401C9.70228 0.633251 9.42783 0.738804 9.21672 0.949917C9.00561 1.16103 8.90006 1.39325 8.90006 1.64658V13.4266L7.00006 12.2866C6.83117 12.2021 6.64117 12.181 6.43006 12.2233C6.21894 12.2655 6.02894 12.371 5.86006 12.5399L0.666722 21.7866C0.497833 21.9555 0.455611 22.1666 0.540055 22.4199C0.6245 22.6733 0.751167 22.8421 0.920055 22.9266L5.22672 25.4599C5.90228 26.051 6.49339 26.7266 7.00006 27.4866L5.60672 30.0199C5.35339 30.4421 5.24783 30.9066 5.29006 31.4133C5.33228 31.9199 5.52228 32.3421 5.86006 32.6799C6.19783 33.0177 6.59894 33.2288 7.06339 33.3133C7.52783 33.3977 8.01339 33.3555 8.52005 33.1866C8.68894 33.7777 9.09006 34.221 9.72339 34.5166C10.3567 34.8121 10.9689 34.791 11.5601 34.4533C11.7289 35.0444 12.0878 35.4666 12.6367 35.7199C13.1856 35.9733 13.7134 36.0577 14.2201 35.9733C14.4734 35.8888 14.7267 35.7621 14.9801 35.5933C15.1489 36.0155 15.4234 36.3533 15.8034 36.6066C16.1834 36.8599 16.5845 36.9866 17.0067 36.9866C17.8512 36.9866 18.4845 36.6066 18.9067 35.8466L20.9334 37.1133C21.3556 37.3666 21.8201 37.4721 22.3267 37.4299C22.8334 37.3877 23.2978 37.1977 23.7201 36.8599C24.1423 36.5221 24.4378 36.121 24.6067 35.6566C24.7756 35.1921 24.7756 34.7066 24.6067 34.1999V33.9466H24.8601C25.5356 33.7777 26.0423 33.3766 26.3801 32.7433C26.7178 32.1099 26.8023 31.4555 26.6334 30.7799L26.5067 30.6533C27.2667 30.4844 27.8578 30.0621 28.2801 29.3866C28.7023 28.711 28.7867 27.9933 28.5334 27.2333C29.2934 27.0644 29.8423 26.6421 30.1801 25.9666L30.4334 25.7133C30.6867 25.5444 31.0245 25.2699 31.4467 24.8899C31.8689 24.5099 32.1223 24.3199 32.2067 24.3199C32.2912 24.3199 32.3756 24.2777 32.4601 24.1933L36.8934 21.6599C37.0623 21.5755 37.1889 21.4277 37.2734 21.2166C37.3578 21.0055 37.3156 20.7733 37.1467 20.5199ZM25.3667 2.65992L27.0134 4.43325H25.3667V2.65992ZM10.0401 1.77325H24.1001V5.06659C24.1001 5.23547 24.1634 5.38325 24.2901 5.50992C24.4167 5.63659 24.5645 5.69992 24.7334 5.69992H27.7734V12.7933L26.5067 13.5533C25.2401 13.4688 23.8889 13.5533 22.4534 13.8066C20.8489 13.9755 19.5401 14.3133 18.5267 14.8199L17.8934 15.0733C17.5556 15.1577 17.2601 15.2844 17.0067 15.4533C14.8956 14.6933 12.9956 14.4399 11.3067 14.6933L10.0401 14.0599V1.77325ZM5.35339 24.0666L1.80672 22.0399L6.74672 13.5533L10.2934 15.5799L5.35339 24.0666ZM8.64672 31.2866L8.39339 31.6666C8.30894 31.9199 8.11894 32.0888 7.82339 32.1733C7.52783 32.2577 7.25339 32.2155 7.00006 32.0466C6.74672 31.8777 6.57783 31.6666 6.49339 31.4133C6.40894 31.1599 6.45117 30.9066 6.62006 30.6533L8.77339 26.8533C8.85783 26.5999 9.04783 26.431 9.34339 26.3466C9.63894 26.2621 9.91339 26.3044 10.1667 26.4733C10.4201 26.6421 10.5889 26.8744 10.6734 27.1699C10.7578 27.4655 10.7156 27.7399 10.5467 27.9933L8.64672 31.2866ZM11.6867 32.6799L11.5601 32.9333C11.3912 33.1866 11.1589 33.3555 10.8634 33.4399C10.5678 33.5244 10.2934 33.5033 10.0401 33.3766C9.78672 33.2499 9.61783 33.0388 9.53339 32.7433C9.44895 32.4477 9.49117 32.1733 9.66006 31.9199L11.5601 28.4999C11.7289 28.2466 11.9612 28.0988 12.2567 28.0566C12.5523 28.0144 12.8267 28.0566 13.0801 28.1833C13.3334 28.3099 13.5023 28.521 13.5867 28.8166C13.6712 29.1121 13.6289 29.3866 13.4601 29.6399L11.6867 32.6799ZM14.6001 34.3266C14.4312 34.5799 14.2201 34.7488 13.9667 34.8333C13.7134 34.9177 13.4389 34.8755 13.1434 34.7066C12.8478 34.5377 12.6789 34.3055 12.6367 34.0099C12.5945 33.7144 12.6156 33.4399 12.7001 33.1866L14.4734 30.2733C14.6423 30.0199 14.8745 29.851 15.1701 29.7666C15.4656 29.6821 15.7401 29.7033 15.9934 29.8299C16.2467 29.9566 16.3945 30.1677 16.4367 30.4633C16.4789 30.7588 16.4578 31.0333 16.3734 31.2866L14.9801 33.5666L14.6001 34.3266ZM16.5001 35.5933C16.2467 35.4244 16.0778 35.2133 15.9934 34.9599C15.9089 34.7066 15.9089 34.4533 15.9934 34.1999L17.3867 31.9199C17.5556 31.6666 17.7667 31.4977 18.0201 31.4133C18.2734 31.3288 18.5267 31.3499 18.7801 31.4766C19.0334 31.6033 19.2023 31.8144 19.2867 32.1099C19.3712 32.4055 19.3289 32.6799 19.1601 32.9333L17.8934 35.2133C17.7245 35.4666 17.5134 35.6355 17.2601 35.7199C17.0067 35.8044 16.7534 35.7621 16.5001 35.5933ZM23.3401 35.5933C23.1712 35.8466 22.8967 36.0366 22.5167 36.1633C22.1367 36.2899 21.8201 36.2688 21.5667 36.0999L19.5401 34.8333L20.3001 33.5666C20.4689 33.1444 20.5534 32.7221 20.5534 32.2999L22.8334 33.6933C23.1712 33.8621 23.3823 34.1366 23.4667 34.5166C23.5512 34.8966 23.5089 35.2555 23.3401 35.5933ZM29.1667 25.4599C28.9978 25.7977 28.7445 26.0088 28.4067 26.0933C28.0689 26.1777 27.7312 26.1355 27.3934 25.9666L22.4534 23.0533C22.2001 22.9688 21.9889 22.9688 21.8201 23.0533C21.6512 23.1377 21.5667 23.3066 21.5667 23.5599C21.5667 23.8133 21.6512 23.9821 21.8201 24.0666L26.7601 26.9799C27.0978 27.1488 27.3089 27.4021 27.3934 27.7399C27.4778 28.0777 27.4356 28.4155 27.2667 28.7533C27.0978 29.091 26.8234 29.3021 26.4434 29.3866C26.0634 29.471 25.7045 29.4288 25.3667 29.2599L21.5667 27.1066C21.3978 27.0221 21.2078 27.0221 20.9967 27.1066C20.7856 27.191 20.6801 27.3599 20.6801 27.6133C20.6801 27.8666 20.8067 28.0355 21.0601 28.1199L24.8601 30.2733C25.1134 30.5266 25.3034 30.8221 25.4301 31.1599C25.5567 31.4977 25.5145 31.8355 25.3034 32.1733C25.0923 32.511 24.8178 32.7221 24.4801 32.8066C24.1423 32.891 23.8045 32.8488 23.4667 32.6799L20.9334 31.1599C20.6801 31.0755 20.4267 31.1177 20.1734 31.2866C19.9201 30.8644 19.5612 30.5477 19.0967 30.3366C18.6323 30.1255 18.1467 30.1044 17.6401 30.2733V30.1466C17.4712 29.5555 17.1123 29.1121 16.5634 28.8166C16.0145 28.521 15.4445 28.4577 14.8534 28.6266H14.7267V28.4999C14.5578 27.9088 14.1989 27.4655 13.6501 27.1699C13.1012 26.8744 12.5312 26.7688 11.9401 26.8533L11.8134 26.9799C11.7289 26.4733 11.5178 26.0721 11.1801 25.7766C10.8423 25.481 10.4412 25.291 9.97672 25.2066C9.51228 25.1221 9.06894 25.1855 8.64672 25.3966C8.2245 25.6077 7.88672 25.9244 7.63339 26.3466C7.29561 25.7555 6.87339 25.2488 6.36672 24.8266L11.5601 15.8333C12.9112 15.6644 14.4734 15.8755 16.2467 16.4666L15.2334 20.1399C15.0645 20.6466 15.0223 21.1533 15.1067 21.6599C15.1912 22.1666 15.4023 22.6521 15.7401 23.1166C16.0778 23.581 16.4156 23.8133 16.7534 23.8133C17.0912 23.8133 17.4289 23.5599 17.7667 23.0533L17.8934 22.9266C18.4001 22.251 18.8223 21.5333 19.1601 20.7733C19.7512 19.8444 20.1312 19.3377 20.3001 19.2533L21.0601 19.1266L28.6601 23.5599C28.9978 23.7288 29.2301 24.0033 29.3567 24.3833C29.4834 24.7633 29.4201 25.1221 29.1667 25.4599ZM30.5601 24.1933C30.3067 23.4333 29.8845 22.8844 29.2934 22.5466L21.4401 17.9866C21.2712 17.9021 21.1023 17.8599 20.9334 17.8599L20.0467 18.1133C19.7089 18.1977 19.4134 18.4088 19.1601 18.7466C18.9067 19.0844 18.5689 19.591 18.1467 20.2666C17.8089 20.9421 17.3867 21.6177 16.8801 22.2933L16.7534 22.5466C16.5001 22.1244 16.3523 21.7655 16.3101 21.4699C16.2678 21.1744 16.2889 20.8577 16.3734 20.5199L17.2601 17.0999C17.3445 16.931 17.4289 16.7621 17.5134 16.5933H17.6401C17.8089 16.4244 17.9778 16.2977 18.1467 16.2133L19.0334 15.9599C19.9623 15.4533 21.1867 15.1155 22.7067 14.9466C23.9734 14.7777 25.1978 14.6933 26.3801 14.6933L31.3201 23.4333L30.5601 24.1933ZM32.4601 22.9266L27.5201 14.3133L31.0667 12.2866L36.0067 20.8999L32.4601 22.9266ZM15.4867 11.6533C15.6556 11.6533 15.7823 11.5899 15.8667 11.4633C15.9512 11.3366 15.9934 11.1888 15.9934 11.0199V7.09325C15.9934 6.92436 15.9512 6.77658 15.8667 6.64992C15.7823 6.52325 15.6556 6.45992 15.4867 6.45992H11.4334C11.2645 6.45992 11.1378 6.52325 11.0534 6.64992C10.9689 6.77658 10.9267 6.92436 10.9267 7.09325V11.0199C10.9267 11.1888 10.9689 11.3366 11.0534 11.4633C11.1378 11.5899 11.2645 11.6533 11.4334 11.6533H15.4867ZM12.0667 7.59992H14.8534V10.3866H12.0667V7.59992ZM14.6001 8.86658L13.7134 10.0066C13.5445 10.091 13.3756 10.1333 13.2067 10.1333C13.0378 10.1333 12.9112 10.091 12.8267 10.0066L12.3201 9.49992C12.2356 9.41547 12.1934 9.28881 12.1934 9.11992C12.1934 8.95103 12.2567 8.80325 12.3834 8.67658C12.5101 8.54992 12.6578 8.48658 12.8267 8.48658C12.9956 8.48658 13.1223 8.52881 13.2067 8.61325V8.73992L13.7134 8.10658C13.8823 7.9377 14.0723 7.87436 14.2834 7.91658C14.4945 7.95881 14.6423 8.08547 14.7267 8.29659C14.8112 8.5077 14.7689 8.69769 14.6001 8.86658ZM17.7667 11.2733C17.7667 11.1044 17.8301 10.9566 17.9567 10.8299C18.0834 10.7033 18.2312 10.6399 18.4001 10.6399H26.3801C26.5489 10.6399 26.6756 10.7033 26.7601 10.8299C26.8445 10.9566 26.8867 11.1044 26.8867 11.2733C26.8867 11.4421 26.8445 11.5899 26.7601 11.7166C26.6756 11.8433 26.5489 11.9066 26.3801 11.9066H18.4001C18.2312 11.9066 18.0834 11.8433 17.9567 11.7166C17.8301 11.5899 17.7667 11.4421 17.7667 11.2733ZM17.7667 7.09325C17.7667 6.92436 17.8301 6.77658 17.9567 6.64992C18.0834 6.52325 18.2312 6.45992 18.4001 6.45992H22.0734C22.2423 6.45992 22.3901 6.52325 22.5167 6.64992C22.6434 6.77658 22.7067 6.92436 22.7067 7.09325C22.7067 7.26214 22.6434 7.38881 22.5167 7.47325C22.3901 7.5577 22.2423 7.59992 22.0734 7.59992H18.4001C18.2312 7.59992 18.0834 7.5577 17.9567 7.47325C17.8301 7.38881 17.7667 7.26214 17.7667 7.09325ZM17.7667 9.11992C17.7667 8.95103 17.8301 8.82436 17.9567 8.73992C18.0834 8.65547 18.2312 8.61325 18.4001 8.61325H23.5934C23.7623 8.61325 23.9101 8.65547 24.0367 8.73992C24.1634 8.82436 24.2267 8.95103 24.2267 9.11992C24.2267 9.28881 24.1634 9.43658 24.0367 9.56325C23.9101 9.68992 23.7623 9.75325 23.5934 9.75325H18.4001C18.2312 9.75325 18.0834 9.68992 17.9567 9.56325C17.8301 9.43658 17.7667 9.28881 17.7667 9.11992Z" fill="#0E2A46"/>
</g>
<defs>
<clipPath id="clip0_1_906">
<rect width="38.02" height="38" fill="white" transform="matrix(1 0 0 -1 0.487823 38)"/>
</clipPath>
</defs>
</svg>
