<svg width="22" height="17" viewBox="0 0 22 17" fill="none" xmlns="http://www.w3.org/2000/svg">
<path d="M8.28126 8.3999C8.28126 9.0961 8.55783 9.76377 9.05011 10.2561C9.54239 10.7483 10.2101 11.0249 10.9063 11.0249C11.6025 11.0249 12.2701 10.7483 12.7624 10.2561C13.2547 9.76377 13.5313 9.0961 13.5313 8.3999C13.5313 7.70371 13.2547 7.03603 12.7624 6.54375C12.2701 6.05146 11.6025 5.7749 10.9063 5.7749C10.2101 5.7749 9.54239 6.05146 9.05011 6.54375C8.55783 7.03603 8.28126 7.70371 8.28126 8.3999ZM21.0828 7.79522C18.861 3.11475 15.5024 0.759277 11 0.759277C6.49533 0.759277 3.13908 3.11475 0.917201 7.79756C0.828081 7.98627 0.78186 8.19238 0.78186 8.40107C0.78186 8.60977 0.828081 8.81588 0.917201 9.00459C3.13908 13.6851 6.49767 16.0405 11 16.0405C15.5047 16.0405 18.861 13.6851 21.0828 9.00225C21.2633 8.62256 21.2633 8.18193 21.0828 7.79522ZM10.9063 12.5249C8.62814 12.5249 6.78126 10.678 6.78126 8.3999C6.78126 6.12178 8.62814 4.2749 10.9063 4.2749C13.1844 4.2749 15.0313 6.12178 15.0313 8.3999C15.0313 10.678 13.1844 12.5249 10.9063 12.5249Z" fill="#030F41"/>
</svg>
