<svg width="21" height="21" viewBox="0 0 21 21" fill="none" xmlns="http://www.w3.org/2000/svg">
<g clip-path="url(#clip0_130_57)">
<g clip-path="url(#clip1_130_57)">
<path d="M19.674 10.2106C19.674 9.43171 19.6121 8.86334 19.4782 8.27393H10.7725V11.7894H15.8825C15.7796 12.663 15.2232 13.9787 13.9869 14.8628L13.9695 14.9805L16.7221 17.159L16.9128 17.1784C18.6643 15.5259 19.674 13.0945 19.674 10.2106Z" fill="#4285F4"/>
<path d="M10.7724 19.4729C13.2759 19.4729 15.3776 18.6308 16.9128 17.1783L13.9868 14.8627C13.2038 15.4205 12.1529 15.81 10.7724 15.81C8.32036 15.81 6.23924 14.1575 5.49738 11.8735L5.38864 11.883L2.52644 14.1459L2.48901 14.2522C4.01379 17.3467 7.14581 19.4729 10.7724 19.4729Z" fill="#34A853"/>
<path d="M5.4974 11.8736C5.30165 11.2842 5.18836 10.6526 5.18836 10C5.18836 9.34742 5.30165 8.71592 5.4871 8.12651L5.48191 8.00098L2.58385 5.70166L2.48903 5.74774C1.8606 7.03185 1.5 8.47386 1.5 10C1.5 11.5262 1.8606 12.9682 2.48903 14.2523L5.4974 11.8736Z" fill="#FBBC05"/>
<path d="M10.7724 4.18991C12.5135 4.18991 13.688 4.95826 14.3577 5.60036L16.9746 2.99004C15.3674 1.46386 13.2759 0.5271 10.7724 0.5271C7.14581 0.5271 4.01379 2.65321 2.48901 5.74766L5.48708 8.12643C6.23924 5.84242 8.32036 4.18991 10.7724 4.18991Z" fill="#EB4335"/>
</g>
</g>
<defs>
<clipPath id="clip0_130_57">
<rect width="20" height="20" fill="white" transform="translate(0.5 0.5)"/>
</clipPath>
<clipPath id="clip1_130_57">
<rect x="1.5" y="0.5" width="18.1739" height="19" rx="9.08696" fill="white"/>
</clipPath>
</defs>
</svg>
