<svg width="158" height="52" viewBox="0 0 158 52" fill="none" xmlns="http://www.w3.org/2000/svg">
<g id="google-play.svg" clip-path="url(#clip0_1_868)">
<path id="Vector" d="M157.226 0H0.226196V52H157.226V0Z" fill="#1C1B3C"/>
<path id="Vector_2" d="M14.8258 35.7525V20.246C14.8258 19.7079 15.1485 19.2336 15.623 19.0146L24.9715 27.9993L15.623 36.9839C15.1485 36.7558 14.8258 36.2906 14.8258 35.7525ZM27.9326 30.8452L17.7205 36.5187L25.7782 28.7746L27.9326 30.8452ZM31.112 26.9138C31.4347 27.1601 31.672 27.5432 31.672 27.9993C31.672 28.4553 31.4632 28.8202 31.131 29.0756L28.9576 30.2796L26.5849 27.9993L28.9576 25.7189L31.112 26.9138ZM17.7205 19.4798L27.9326 25.1534L25.7782 27.2239L17.7205 19.4798Z" fill="white"/>
<path id="Vector_3" d="M52.2149 22.1529C51.5336 22.1531 50.8942 22.0273 50.2968 21.7755C49.7088 21.5143 49.1907 21.1551 48.7425 20.6979C48.3037 20.2407 47.9583 19.7088 47.7061 19.1022C47.4539 18.4956 47.3278 17.8423 47.3276 17.1423C47.3274 16.4423 47.4532 15.7936 47.7051 15.1962C47.9569 14.5894 48.3067 14.0573 48.7546 13.5999C49.2025 13.1424 49.7251 12.7876 50.3223 12.5355C50.9289 12.2833 51.5869 12.1571 52.2962 12.1569C53.0709 12.1567 53.7849 12.3059 54.4384 12.6043C55.0918 12.9028 55.6379 13.332 56.0767 13.8919L55.1669 14.8021C54.8588 14.3542 54.4527 14.0137 53.9487 13.7805C53.4446 13.5379 52.8939 13.4168 52.2966 13.4169C51.5872 13.4171 50.9573 13.576 50.4067 13.8934C49.8655 14.2109 49.4409 14.6497 49.1331 15.2098C48.8345 15.7699 48.6854 16.4139 48.6856 17.1419C48.6858 17.8792 48.84 18.5279 49.1481 19.0878C49.4563 19.6477 49.8717 20.0862 50.3945 20.4034C50.9172 20.7206 51.5146 20.8791 52.1866 20.879C52.8679 20.8788 53.4559 20.7479 53.9505 20.4865C54.4544 20.225 54.8416 19.8422 55.1122 19.3382C55.3827 18.8248 55.5179 18.1994 55.5177 17.4621L56.3158 18.0358L52.1158 18.037L52.1155 16.833L56.8755 16.8317V17.0277C56.8759 18.157 56.6754 19.1044 56.2743 19.8699C55.8825 20.626 55.332 21.1954 54.6228 21.5783C53.9229 21.9612 53.1203 22.1527 52.2149 22.1529ZM61.6431 22.1504C60.9804 22.1506 60.383 22.0014 59.8509 21.7029C59.3188 21.395 58.8987 20.9798 58.5906 20.4572C58.2825 19.9346 58.1283 19.342 58.1281 18.6794C58.1279 18.026 58.2771 17.438 58.5756 16.9152C58.8835 16.3925 59.2941 15.9817 59.8073 15.6829C60.3299 15.3748 60.9132 15.2206 61.5572 15.2204C62.1732 15.2203 62.7146 15.3601 63.1813 15.64C63.6574 15.9199 64.0261 16.3071 64.2876 16.8017C64.5584 17.2963 64.6939 17.8562 64.6941 18.4816C64.6941 18.5749 64.6894 18.6776 64.6801 18.7896C64.6708 18.8923 64.6522 19.0136 64.6242 19.1536L59.0102 19.1551L59.01 18.1051L63.952 18.1038L63.4901 18.5099C63.49 18.0619 63.4105 17.6839 63.2518 17.376C63.093 17.0587 62.8689 16.8161 62.5796 16.6482C62.2902 16.4709 61.9402 16.3823 61.5295 16.3824C61.1002 16.3826 60.7222 16.476 60.3956 16.6627C60.069 16.8495 59.817 17.1109 59.6398 17.4469C59.4625 17.783 59.374 18.1797 59.3741 18.637C59.3742 19.1037 59.4677 19.5143 59.6544 19.8689C59.8412 20.2142 60.1073 20.4848 60.4527 20.6807C60.798 20.8673 61.1947 20.9605 61.6427 20.9604C62.0161 20.9603 62.3567 20.8949 62.6647 20.7641C62.982 20.6334 63.2526 20.4373 63.4765 20.1759L64.2887 21.0017C63.9715 21.3751 63.5796 21.6599 63.113 21.856C62.6557 22.0521 62.1657 22.1503 61.6431 22.1504ZM67.0395 22.0089L67.0369 12.5729L68.2969 12.5726L68.2995 22.0086L67.0395 22.0089ZM65.4 16.5074L65.3997 15.3594L69.9357 15.3582L69.936 16.5062L65.4 16.5074ZM74.5879 22.0069L74.5853 12.2909L75.9013 12.2906L75.9039 22.0066L74.5879 22.0069ZM79.1352 22.0057L79.1327 12.5697L80.3927 12.5693L80.3952 22.0053L79.1352 22.0057ZM77.4958 16.5041L77.4955 15.3561L82.0315 15.3549L82.0318 16.5029L77.4958 16.5041ZM91.1077 22.1425C90.417 22.1426 89.773 22.0168 89.1756 21.765C88.5782 21.5038 88.0554 21.1446 87.6073 20.6874C87.1592 20.2209 86.809 19.6843 86.5569 19.0777C86.314 18.4711 86.1925 17.8225 86.1923 17.1318C86.1921 16.4318 86.3133 15.7831 86.5558 15.1857C86.8076 14.579 87.1528 14.0469 87.5914 13.5894C88.0393 13.132 88.5572 12.7771 89.1451 12.525C89.7424 12.2728 90.3863 12.1467 91.077 12.1465C91.7677 12.1463 92.407 12.2721 92.9951 12.5239C93.5925 12.7758 94.1153 13.1303 94.5634 13.5875C95.0115 14.0447 95.3616 14.5766 95.6138 15.1832C95.866 15.7898 95.9922 16.4431 95.9923 17.1431C95.9925 17.8338 95.8667 18.4825 95.6149 19.0892C95.363 19.696 95.0132 20.2281 94.5653 20.6855C94.1268 21.143 93.6089 21.5025 93.0116 21.7639C92.4237 22.0161 91.789 22.1423 91.1077 22.1425ZM91.0793 20.8825C91.7793 20.8823 92.3906 20.7234 92.9132 20.406C93.4451 20.0792 93.865 19.6357 94.1729 19.0756C94.4807 18.5062 94.6345 17.8575 94.6343 17.1295C94.6342 16.5882 94.5454 16.0935 94.3679 15.6456C94.1905 15.1883 93.943 14.7917 93.6256 14.4558C93.3082 14.1199 92.9348 13.8633 92.5054 13.6861C92.076 13.4995 91.6 13.4063 91.0773 13.4065C90.3867 13.4067 89.7754 13.5655 89.2435 13.883C88.7209 14.2004 88.3057 14.6392 87.9978 15.1993C87.6993 15.7594 87.5501 16.4034 87.5503 17.1314C87.5505 17.6728 87.6346 18.1767 87.8027 18.6433C87.9802 19.1006 88.223 19.4972 88.5311 19.8332C88.8485 20.1597 89.2219 20.4163 89.6513 20.6029C90.09 20.7894 90.566 20.8826 91.0793 20.8825ZM102.419 21.9994L102.418 18.1214C102.418 17.6174 102.259 17.2021 101.941 16.8755C101.624 16.549 101.213 16.3857 100.709 16.3859C100.373 16.386 100.075 16.4607 99.8134 16.6101C99.5521 16.7595 99.3469 16.9649 99.1976 17.2263C99.0483 17.4877 98.9737 17.7863 98.9738 18.1223L98.4558 17.8285C98.4556 17.3245 98.5675 16.8764 98.7914 16.4844C99.0153 16.0923 99.3279 15.7842 99.7291 15.5601C100.13 15.3267 100.583 15.2099 101.087 15.2098C101.591 15.2096 102.034 15.3355 102.417 15.5874C102.809 15.8393 103.117 16.1706 103.341 16.5812C103.565 16.9824 103.677 17.4117 103.678 17.8691L103.679 21.9991L102.419 21.9994ZM97.7149 22.0007L97.7131 15.3507L98.9731 15.3503L98.9749 22.0003L97.7149 22.0007Z" fill="#B2BBCC"/>
<path id="Vector_4" d="M52.6982 40.16C51.9302 40.16 51.2049 40.0107 50.5222 39.712C49.8395 39.4133 49.2422 39.0027 48.7302 38.48C48.2182 37.9467 47.8129 37.3333 47.5142 36.64C47.2262 35.936 47.0822 35.184 47.0822 34.384C47.0822 33.584 47.2262 32.8373 47.5142 32.144C47.8129 31.4507 48.2182 30.8427 48.7302 30.32C49.2529 29.7867 49.8609 29.376 50.5542 29.088C51.2582 28.7893 52.0155 28.64 52.8262 28.64C53.7115 28.64 54.5329 28.8107 55.2902 29.152C56.0475 29.4933 56.6822 29.9787 57.1942 30.608L55.9462 31.856C55.6155 31.3867 55.1729 31.0293 54.6182 30.784C54.0635 30.528 53.4662 30.4 52.8262 30.4C52.0582 30.4 51.3809 30.5707 50.7942 30.912C50.2182 31.2427 49.7702 31.7067 49.4502 32.304C49.1302 32.9013 48.9702 33.5947 48.9702 34.384C48.9702 35.1733 49.1302 35.872 49.4502 36.48C49.7809 37.0773 50.2235 37.5467 50.7782 37.888C51.3329 38.2293 51.9622 38.4 52.6662 38.4C53.4129 38.4 54.0529 38.2667 54.5862 38C55.1302 37.7227 55.5462 37.3173 55.8342 36.784C56.1222 36.24 56.2662 35.5733 56.2662 34.784L57.4182 35.616H52.6342V33.936H58.1702V34.192C58.1702 35.5253 57.9302 36.6347 57.4502 37.52C56.9809 38.4053 56.3355 39.0667 55.5142 39.504C54.6929 39.9413 53.7542 40.16 52.6982 40.16ZM63.4416 40.16C62.6949 40.16 62.0176 39.984 61.4096 39.632C60.8016 39.2693 60.3162 38.784 59.9536 38.176C59.6016 37.568 59.4256 36.8907 59.4256 36.144C59.4256 35.3973 59.6016 34.7253 59.9536 34.128C60.3162 33.5307 60.8016 33.056 61.4096 32.704C62.0176 32.3413 62.6949 32.16 63.4416 32.16C64.1989 32.16 64.8816 32.336 65.4896 32.688C66.0976 33.04 66.5776 33.52 66.9296 34.128C67.2922 34.7253 67.4736 35.3973 67.4736 36.144C67.4736 36.8907 67.2922 37.568 66.9296 38.176C66.5776 38.784 66.0976 39.2693 65.4896 39.632C64.8816 39.984 64.1989 40.16 63.4416 40.16ZM63.4416 38.464C63.8789 38.464 64.2629 38.368 64.5936 38.176C64.9349 37.9733 65.1962 37.696 65.3776 37.344C65.5696 36.992 65.6656 36.592 65.6656 36.144C65.6656 35.696 65.5696 35.3013 65.3776 34.96C65.1856 34.6187 64.9242 34.352 64.5936 34.16C64.2629 33.9573 63.8789 33.856 63.4416 33.856C63.0149 33.856 62.6309 33.9573 62.2896 34.16C61.9589 34.352 61.6976 34.6187 61.5056 34.96C61.3242 35.3013 61.2336 35.696 61.2336 36.144C61.2336 36.592 61.3242 36.992 61.5056 37.344C61.6976 37.696 61.9589 37.9733 62.2896 38.176C62.6309 38.368 63.0149 38.464 63.4416 38.464ZM72.6172 40.16C71.8705 40.16 71.1932 39.984 70.5852 39.632C69.9772 39.2693 69.4919 38.784 69.1292 38.176C68.7772 37.568 68.6012 36.8907 68.6012 36.144C68.6012 35.3973 68.7772 34.7253 69.1292 34.128C69.4919 33.5307 69.9772 33.056 70.5852 32.704C71.1932 32.3413 71.8705 32.16 72.6172 32.16C73.3745 32.16 74.0572 32.336 74.6652 32.688C75.2732 33.04 75.7532 33.52 76.1052 34.128C76.4679 34.7253 76.6492 35.3973 76.6492 36.144C76.6492 36.8907 76.4679 37.568 76.1052 38.176C75.7532 38.784 75.2732 39.2693 74.6652 39.632C74.0572 39.984 73.3745 40.16 72.6172 40.16ZM72.6172 38.464C73.0545 38.464 73.4385 38.368 73.7692 38.176C74.1105 37.9733 74.3719 37.696 74.5532 37.344C74.7452 36.992 74.8412 36.592 74.8412 36.144C74.8412 35.696 74.7452 35.3013 74.5532 34.96C74.3612 34.6187 74.0999 34.352 73.7692 34.16C73.4385 33.9573 73.0545 33.856 72.6172 33.856C72.1905 33.856 71.8065 33.9573 71.4652 34.16C71.1345 34.352 70.8732 34.6187 70.6812 34.96C70.4999 35.3013 70.4092 35.696 70.4092 36.144C70.4092 36.592 70.4999 36.992 70.6812 37.344C70.8732 37.696 71.1345 37.9733 71.4652 38.176C71.8065 38.368 72.1905 38.464 72.6172 38.464ZM81.4728 43.36C80.6622 43.36 79.9528 43.2107 79.3448 42.912C78.7368 42.624 78.2462 42.2133 77.8728 41.68L79.0248 40.528C79.3342 40.912 79.6862 41.2 80.0808 41.392C80.4755 41.584 80.9502 41.68 81.5048 41.68C82.1982 41.68 82.7475 41.4987 83.1528 41.136C83.5582 40.784 83.7608 40.2987 83.7608 39.68V37.792L84.0648 36.096L83.7608 34.384V32.32H85.5208V39.68C85.5208 40.416 85.3502 41.056 85.0088 41.6C84.6675 42.1547 84.1928 42.5867 83.5848 42.896C82.9768 43.2053 82.2728 43.36 81.4728 43.36ZM81.3928 39.84C80.7102 39.84 80.0915 39.6747 79.5368 39.344C78.9928 39.0027 78.5608 38.5387 78.2408 37.952C77.9315 37.3653 77.7768 36.7093 77.7768 35.984C77.7768 35.2587 77.9315 34.608 78.2408 34.032C78.5608 33.456 78.9928 33.0027 79.5368 32.672C80.0915 32.3307 80.7102 32.16 81.3928 32.16C82.0008 32.16 82.5342 32.2827 82.9928 32.528C83.4515 32.7733 83.8088 33.1147 84.0648 33.552C84.3208 33.9787 84.4488 34.48 84.4488 35.056V36.944C84.4488 37.5093 84.3155 38.0107 84.0488 38.448C83.7928 38.8853 83.4355 39.2267 82.9768 39.472C82.5182 39.7173 81.9902 39.84 81.3928 39.84ZM81.7448 38.176C82.1715 38.176 82.5448 38.0853 82.8648 37.904C83.1848 37.7227 83.4302 37.472 83.6008 37.152C83.7822 36.8213 83.8728 36.4373 83.8728 36C83.8728 35.5627 83.7822 35.184 83.6008 34.864C83.4302 34.5333 83.1848 34.2773 82.8648 34.096C82.5448 33.9147 82.1715 33.824 81.7448 33.824C81.3182 33.824 80.9395 33.9147 80.6088 34.096C80.2888 34.2773 80.0382 34.5333 79.8568 34.864C79.6755 35.184 79.5848 35.5627 79.5848 36C79.5848 36.4267 79.6755 36.8053 79.8568 37.136C80.0382 37.4667 80.2888 37.7227 80.6088 37.904C80.9395 38.0853 81.3182 38.176 81.7448 38.176ZM87.636 40V28.48H89.396V40H87.636ZM95.0827 40.16C94.3147 40.16 93.6214 39.9893 93.0027 39.648C92.3947 39.296 91.9094 38.816 91.5467 38.208C91.1947 37.6 91.0187 36.9173 91.0187 36.16C91.0187 35.4027 91.1947 34.7253 91.5467 34.128C91.8987 33.52 92.3734 33.04 92.9707 32.688C93.5787 32.336 94.2507 32.16 94.9867 32.16C95.7014 32.16 96.3307 32.3253 96.8747 32.656C97.4294 32.9867 97.8614 33.44 98.1707 34.016C98.4907 34.592 98.6507 35.248 98.6507 35.984C98.6507 36.112 98.64 36.2453 98.6187 36.384C98.608 36.512 98.5867 36.656 98.5547 36.816H92.2507V35.376H97.6427L96.9867 35.952C96.9654 35.4827 96.8747 35.088 96.7147 34.768C96.5547 34.448 96.3254 34.2027 96.0267 34.032C95.7387 33.8613 95.3814 33.776 94.9547 33.776C94.5067 33.776 94.1174 33.872 93.7867 34.064C93.456 34.256 93.2 34.528 93.0187 34.88C92.8374 35.2213 92.7467 35.632 92.7467 36.112C92.7467 36.592 92.8427 37.0133 93.0347 37.376C93.2267 37.7387 93.4987 38.0213 93.8507 38.224C94.2027 38.416 94.608 38.512 95.0667 38.512C95.4614 38.512 95.824 38.4427 96.1547 38.304C96.496 38.1653 96.784 37.9627 97.0187 37.696L98.1387 38.832C97.7654 39.2693 97.312 39.6 96.7787 39.824C96.2454 40.048 95.68 40.16 95.0827 40.16ZM105.088 35.776V34.176H107.888C108.273 34.176 108.609 34.1013 108.896 33.952C109.195 33.792 109.43 33.5733 109.6 33.296C109.771 33.008 109.856 32.672 109.856 32.288C109.856 31.904 109.771 31.5733 109.6 31.296C109.43 31.008 109.195 30.7893 108.896 30.64C108.609 30.48 108.273 30.4 107.888 30.4H105.088V28.8H107.985C108.688 28.8 109.318 28.944 109.873 29.232C110.438 29.52 110.881 29.9253 111.2 30.448C111.531 30.9707 111.696 31.584 111.696 32.288C111.696 32.992 111.531 33.6053 111.2 34.128C110.881 34.6507 110.438 35.056 109.873 35.344C109.318 35.632 108.688 35.776 107.985 35.776H105.088ZM103.824 40V28.8H105.664V40H103.824ZM113.401 40V28.48H115.161V40H113.401ZM120.495 40.16C119.802 40.16 119.173 39.984 118.607 39.632C118.053 39.28 117.61 38.8053 117.279 38.208C116.959 37.6 116.799 36.9227 116.799 36.176C116.799 35.4187 116.959 34.7413 117.279 34.144C117.61 33.536 118.053 33.056 118.607 32.704C119.173 32.3413 119.802 32.16 120.495 32.16C121.082 32.16 121.599 32.288 122.047 32.544C122.506 32.7893 122.869 33.1307 123.135 33.568C123.402 34.0053 123.535 34.5013 123.535 35.056V37.264C123.535 37.8187 123.402 38.3147 123.135 38.752C122.879 39.1893 122.522 39.536 122.063 39.792C121.605 40.0373 121.082 40.16 120.495 40.16ZM120.783 38.496C121.434 38.496 121.957 38.2773 122.351 37.84C122.757 37.4027 122.959 36.8427 122.959 36.16C122.959 35.7013 122.869 35.296 122.687 34.944C122.506 34.592 122.25 34.32 121.919 34.128C121.599 33.9253 121.221 33.824 120.783 33.824C120.357 33.824 119.978 33.9253 119.647 34.128C119.327 34.32 119.071 34.592 118.879 34.944C118.698 35.296 118.607 35.7013 118.607 36.16C118.607 36.6187 118.698 37.024 118.879 37.376C119.071 37.728 119.327 38.0053 119.647 38.208C119.978 38.4 120.357 38.496 120.783 38.496ZM122.847 40V37.936L123.151 36.064L122.847 34.208V32.32H124.608V40H122.847ZM129.201 40.08L125.921 32.32H127.857L130.097 38.016H129.537L131.905 32.32H133.857L130.289 40.08H129.201ZM126.913 43.2L129.297 38.288L130.289 40.08L128.865 43.2H126.913Z" fill="white"/>
</g>
<defs>
<clipPath id="clip0_1_868">
<rect width="157" height="52" fill="white" transform="translate(0.226196)"/>
</clipPath>
</defs>
</svg>
