<svg width="48" height="108" viewBox="0 0 48 108" fill="none" xmlns="http://www.w3.org/2000/svg">
<path id="Vector" fill-rule="evenodd" clip-rule="evenodd" d="M-2.41185 0H-10.0904V33.9978L-22.8262 2.47558L-29.9455 5.35196L-16.8797 37.6908L-41.5426 13.0279L-46.972 18.4574L-23.3338 42.0956L-53.9672 28.7116L-57.0413 35.7478L-24.6276 49.9096H-60V57.5882H-24.6277L-57.0413 71.7499L-53.9672 78.7862L-23.3338 65.4022L-46.972 89.0404L-41.5426 94.4696L-16.8797 69.8069L-29.9455 102.146L-22.8262 105.022L-10.0904 73.5V107.498H-2.41185V73.5L10.3239 105.022L17.443 102.146L4.37771 69.8069L29.0404 94.4696L34.4696 89.0404L10.8313 65.4022L41.465 78.7862L44.5389 71.7499L12.1256 57.5882H47.4977V49.9096H12.1251L44.5389 35.7478L41.465 28.7116L10.8313 42.0956L34.4696 18.4574L29.0404 13.0279L4.37771 37.6908L17.443 5.35196L10.3239 2.47558L-2.41185 33.9978V0Z" fill="#525FE1"/>
</svg>
