<svg width="16" height="16" viewBox="0 0 16 16" fill="none" xmlns="http://www.w3.org/2000/svg">
<g id="List &#226;&#134;&#146; Item &#226;&#134;&#146; Link &#226;&#134;&#146; SVG" clip-path="url(#clip0_1_857)">
<path id="Vector" d="M11.0887 0.72998H5.46375C2.87531 0.72998 0.776245 2.82904 0.776245 5.41748V11.0425C0.776245 13.6309 2.87531 15.73 5.46375 15.73H11.0887C13.6771 15.73 15.7762 13.6309 15.7762 11.0425V5.41748C15.7762 2.82904 13.6771 0.72998 11.0887 0.72998ZM14.37 11.0425C14.37 12.8519 12.8981 14.3238 11.0887 14.3238H5.46375C3.65438 14.3238 2.1825 12.8519 2.1825 11.0425V5.41748C2.1825 3.60811 3.65438 2.13623 5.46375 2.13623H11.0887C12.8981 2.13623 14.37 3.60811 14.37 5.41748V11.0425Z" fill="#B2BBCC"/>
<path id="Vector_2" d="M8.27625 4.47998C6.20531 4.47998 4.52625 6.15904 4.52625 8.22998C4.52625 10.3009 6.20531 11.98 8.27625 11.98C10.3472 11.98 12.0262 10.3009 12.0262 8.22998C12.0262 6.15904 10.3472 4.47998 8.27625 4.47998ZM8.27625 10.5737C6.98438 10.5737 5.9325 9.52185 5.9325 8.22998C5.9325 6.93717 6.98438 5.88623 8.27625 5.88623C9.56812 5.88623 10.62 6.93717 10.62 8.22998C10.62 9.52185 9.56812 10.5737 8.27625 10.5737Z" fill="#B2BBCC"/>
<path id="Vector_3" d="M12.3075 4.69835C12.5834 4.69835 12.8072 4.47463 12.8072 4.19866C12.8072 3.92269 12.5834 3.69897 12.3075 3.69897C12.0315 3.69897 11.8078 3.92269 11.8078 4.19866C11.8078 4.47463 12.0315 4.69835 12.3075 4.69835Z" fill="#B2BBCC"/>
</g>
<defs>
<clipPath id="clip0_1_857">
<rect width="15" height="15" fill="white" transform="translate(0.776245 0.72998)"/>
</clipPath>
</defs>
</svg>
