<svg width="16" height="9" viewBox="0 0 16 9" fill="none" xmlns="http://www.w3.org/2000/svg">
<path fill-rule="evenodd" clip-rule="evenodd" d="M0.35544 8.25985H1.72382C1.59362 8.22454 1.49597 8.09959 1.49597 7.95292V0.316433C1.49597 0.142598 1.63268 0 1.79933 0H14.1212C14.2879 0 14.4246 0.142598 14.4246 0.316433V7.95156C14.4246 8.09824 14.3283 8.22318 14.1968 8.25849H15.6446C15.8399 8.25849 16 8.42417 16 8.62924C16 8.83296 15.8412 9 15.6446 9H0.35544C0.160143 9 0 8.83431 0 8.62924C0 8.42553 0.158841 8.25985 0.35544 8.25985ZM3.89421 1.48981H7.06844V5.46084C7.06193 5.5722 6.92522 5.57492 6.77679 5.56813H3.84344C3.63772 5.56813 3.46977 5.74332 3.46977 5.9579C3.46977 6.17248 3.63772 6.34767 3.84344 6.34767H6.9122V5.93345H7.20384V6.46039C7.20384 6.55681 7.12833 6.63422 7.03719 6.63422H3.85776C3.488 6.77682 3.18594 6.46175 3.18594 6.07605V2.22861C3.18724 1.82254 3.50492 1.48981 3.89421 1.48981ZM8.6881 6.42236C8.58263 6.42236 8.4967 6.32594 8.4967 6.20779C8.4967 6.08963 8.58263 5.99321 8.6881 5.99321H12.5016C12.607 5.99321 12.693 6.08963 12.693 6.20779C12.693 6.32594 12.607 6.42236 12.5016 6.42236H8.6881ZM8.66075 1.73563H12.8622C12.9521 1.73563 13.0263 1.81304 13.0263 1.90675V2.51788C13.0263 2.61023 12.9521 2.689 12.8622 2.689H8.66075C8.57222 2.689 8.4967 2.61295 8.4967 2.51788V1.90675C8.4967 1.81168 8.57092 1.73563 8.66075 1.73563ZM8.6881 4.02399C8.58263 4.02399 8.4967 3.92757 8.4967 3.80942C8.4967 3.69126 8.58263 3.59484 8.6881 3.59484H12.2399C12.3453 3.59484 12.4313 3.69126 12.4313 3.80942C12.4313 3.92757 12.3453 4.02399 12.2399 4.02399H8.6881ZM8.6881 5.22318C8.58263 5.22318 8.4967 5.12675 8.4967 5.0086C8.4967 4.89045 8.58263 4.79402 8.6881 4.79402H11.6865C11.792 4.79402 11.8779 4.89045 11.8779 5.0086C11.8779 5.12675 11.792 5.22318 11.6865 5.22318H8.6881ZM4.02571 2.067H4.14419C4.20408 2.067 4.25356 2.1091 4.25356 2.15935V5.06157C4.25356 5.11182 4.20408 5.15392 4.14419 5.15392H4.02571C3.96582 5.15392 3.91635 5.11182 3.91635 5.06157V2.15935C3.91635 2.10774 3.96582 2.067 4.02571 2.067ZM2.01416 0.495699H13.9468V7.86193H2.01416V0.495699ZM7.7012 8.39837H8.69981C8.79356 8.39837 8.87037 8.4785 8.87037 8.57628C8.87037 8.67406 8.79356 8.75419 8.69981 8.75419H7.7012C7.60745 8.75419 7.53064 8.67406 7.53064 8.57628C7.53064 8.47714 7.60745 8.39837 7.7012 8.39837Z" fill="#030F41"/>
</svg>
