<svg width="21" height="21" viewBox="0 0 21 21" fill="none" xmlns="http://www.w3.org/2000/svg">
<path d="M1.5 3.47474C1.5 2.90234 1.70034 2.43012 2.10101 2.05808C2.50168 1.68602 3.02256 1.5 3.66363 1.5C4.29327 1.5 4.80268 1.68315 5.19191 2.04949C5.59258 2.42727 5.79292 2.91951 5.79292 3.52626C5.79292 4.07575 5.59832 4.53365 5.20908 4.89999C4.80842 5.27777 4.28181 5.46666 3.62929 5.46666H3.61212C2.98248 5.46666 2.47307 5.27777 2.08384 4.89999C1.69461 4.52222 1.5 4.04713 1.5 3.47474ZM1.72323 18.5V7.02928H5.53535V18.5H1.72323ZM7.64746 18.5H11.4596V12.0949C11.4596 11.6942 11.5054 11.3852 11.597 11.1677C11.7572 10.7784 12.0005 10.4493 12.3267 10.1803C12.653 9.91126 13.0623 9.77675 13.5545 9.77675C14.8367 9.77675 15.4778 10.6411 15.4778 12.3697V18.5H19.2899V11.9232C19.2899 10.2289 18.8892 8.94393 18.0879 8.06817C17.2865 7.19242 16.2276 6.75454 14.9111 6.75454C13.4343 6.75454 12.2838 7.38989 11.4596 8.66059V8.69494H11.4424L11.4596 8.66059V7.02928H7.64746C7.67035 7.39561 7.68181 8.53466 7.68181 10.4465C7.68181 12.3582 7.67035 15.0427 7.64746 18.5Z" fill="black"/>
</svg>
