<svg width="15" height="14" viewBox="0 0 15 14" fill="none" xmlns="http://www.w3.org/2000/svg">
<g id="office-address-icon 1" clip-path="url(#clip0_1_830)">
<path id="Vector" fill-rule="evenodd" clip-rule="evenodd" d="M5.98145 9.39087C5.76108 10.4008 5.27618 11.3339 4.57642 12.0947C4.22272 12.4835 3.81636 12.8208 3.36914 13.0969C3.30067 13.1478 3.21838 13.1766 3.13315 13.1797C3.04792 13.1827 2.96378 13.1598 2.89185 13.114C2.24775 12.7084 1.67591 12.198 1.19995 11.604C0.612154 10.8878 0.217541 10.033 0.0537127 9.1211C-0.0866682 8.2544 0.0463885 7.41699 0.488283 6.73218C0.66749 6.4529 0.891907 6.20538 1.15235 5.99976C1.71706 5.52921 2.42662 5.26754 3.16162 5.25879C3.88146 5.26847 4.5713 5.54867 5.094 6.0437C5.29698 6.22719 5.47252 6.43891 5.61524 6.67236C6.08032 7.44141 6.18408 8.41309 5.98145 9.39087ZM5.00489 12.9419H14.5886V3.9209H10.8081V12.9395H10.3894V0.418702H4.01001V4.47144H3.99658H3.99048H3.97095H3.96485H3.93921H3.93189H3.91968H3.90625H3.88672H3.8794H3.59131V2.19727V0.366212C3.59172 0.269543 3.63033 0.176956 3.69873 0.108644C3.73275 0.0742618 3.77324 0.0469591 3.81787 0.028312C3.8625 0.00966488 3.91038 4.27221e-05 3.95874 1.09953e-06H10.4407C10.489 -0.000117208 10.5368 0.00931278 10.5814 0.0277485C10.626 0.0461842 10.6666 0.0732617 10.7007 0.107423L10.7153 0.124513C10.7752 0.191725 10.8082 0.278637 10.8081 0.368653V3.5022H14.6924C14.7326 3.50208 14.7724 3.51002 14.8095 3.52553C14.8467 3.54104 14.8803 3.56382 14.9085 3.59253C14.9372 3.6207 14.9599 3.65433 14.9755 3.69143C14.991 3.72854 14.9989 3.76838 14.9988 3.8086V13.1506C14.9988 13.1782 14.9933 13.2054 14.9828 13.2308C14.9722 13.2562 14.9567 13.2793 14.9372 13.2987C14.9177 13.3181 14.8945 13.3334 14.8691 13.3438C14.8436 13.3543 14.8163 13.3595 14.7888 13.3594H4.52881L4.53858 13.3508L4.54956 13.3423L4.55933 13.3337L4.57031 13.3252L4.57764 13.3191H4.58496H4.59107H4.59839H4.60449H4.61182H4.61914L4.62647 13.313V13.3069H4.63379H4.63989H4.646L4.65332 13.3008H4.66065H4.66797H4.67407L4.88281 13.0615L4.89624 13.0505H4.90357L4.90967 13.0444L4.91577 13.0383L5.00489 12.9419ZM6.84571 7.39014H7.33399C7.34344 7.39014 7.35281 7.392 7.36155 7.39562C7.37029 7.39924 7.37823 7.40454 7.38491 7.41123C7.3916 7.41792 7.39691 7.42586 7.40053 7.4346C7.40415 7.44334 7.40601 7.4527 7.40601 7.46216V8.62549C7.40569 8.64449 7.39801 8.66263 7.38457 8.67607C7.37113 8.68951 7.35299 8.6972 7.33399 8.69751H6.95801C6.97189 8.40201 6.95964 8.10585 6.92139 7.8125C6.90308 7.67212 6.87744 7.53296 6.84571 7.39624V7.39014ZM6.79688 9.79614H7.33155C7.35043 9.79646 7.36844 9.80419 7.38169 9.81767C7.39493 9.83114 7.40235 9.84927 7.40235 9.86817V11.0315C7.40251 11.0409 7.4008 11.0502 7.39731 11.059C7.39383 11.0677 7.38864 11.0756 7.38205 11.0823C7.37545 11.0891 7.3676 11.0944 7.35892 11.098C7.35025 11.1016 7.34095 11.1035 7.33155 11.1035H6.31836C6.52436 10.6862 6.68479 10.2479 6.79688 9.79614ZM6.18653 4.98413H7.33399C7.35276 4.98413 7.37077 4.99159 7.38405 5.00487C7.39733 5.01815 7.40479 5.03616 7.40479 5.05493V6.21826C7.40495 6.22766 7.40324 6.237 7.39975 6.24573C7.39627 6.25446 7.39108 6.26241 7.38449 6.26912C7.3779 6.27582 7.37004 6.28115 7.36137 6.28478C7.3527 6.28841 7.34339 6.29029 7.33399 6.29028H6.41846L6.37207 6.21216C6.29324 6.08138 6.20726 5.95505 6.1145 5.83374V5.05493C6.1145 5.04553 6.11637 5.03622 6.12001 5.02755C6.12364 5.01888 6.12897 5.01102 6.13567 5.00443C6.14238 4.99784 6.15033 4.99265 6.15906 4.98917C6.16779 4.98568 6.17713 4.98397 6.18653 4.98413ZM8.26172 9.79614H9.39942C9.41831 9.79646 9.43631 9.80419 9.44956 9.81767C9.4628 9.83114 9.47022 9.84927 9.47022 9.86817V11.0315C9.47107 11.0413 9.46986 11.0512 9.46669 11.0605C9.46351 11.0698 9.45843 11.0783 9.45177 11.0856C9.44511 11.0928 9.43701 11.0986 9.428 11.1025C9.41899 11.1064 9.40925 11.1084 9.39942 11.1084H8.25196C8.24245 11.1086 8.23301 11.1068 8.2242 11.1033C8.21539 11.0997 8.20738 11.0944 8.20066 11.0877C8.19394 11.081 8.18864 11.0729 8.18508 11.0641C8.18152 11.0553 8.17977 11.0459 8.17993 11.0364V9.86817C8.17993 9.84906 8.18752 9.83074 8.20103 9.81724C8.21454 9.80373 8.23285 9.79614 8.25196 9.79614H8.26172ZM8.26172 7.39014H9.39942C9.40882 7.39014 9.41813 7.39201 9.4268 7.39564C9.43547 7.39928 9.44333 7.4046 9.44992 7.4113C9.45651 7.41801 9.4617 7.42596 9.46518 7.43469C9.46867 7.44342 9.47038 7.45276 9.47022 7.46216V8.62549C9.47022 8.64438 9.4628 8.66252 9.44956 8.67599C9.43631 8.68946 9.41831 8.69719 9.39942 8.69751H8.25196C8.23285 8.69751 8.21454 8.68992 8.20103 8.67642C8.18752 8.66291 8.17993 8.64459 8.17993 8.62549V7.46216C8.17977 7.45266 8.18152 7.44322 8.18508 7.4344C8.18864 7.42559 8.19394 7.41759 8.20066 7.41086C8.20738 7.40414 8.21539 7.39884 8.2242 7.39528C8.23301 7.39172 8.24245 7.38997 8.25196 7.39014H8.26172ZM8.26172 4.98413H9.39942C9.41819 4.98413 9.4362 4.99159 9.44948 5.00487C9.46276 5.01815 9.47022 5.03616 9.47022 5.05493V6.21826C9.47038 6.22766 9.46867 6.237 9.46518 6.24573C9.4617 6.25446 9.45651 6.26241 9.44992 6.26912C9.44333 6.27582 9.43547 6.28115 9.4268 6.28478C9.41813 6.28841 9.40882 6.29029 9.39942 6.29028H8.25196C8.24245 6.29045 8.23301 6.2887 8.2242 6.28514C8.21539 6.28158 8.20738 6.27628 8.20066 6.26956C8.19394 6.26284 8.18864 6.25483 8.18508 6.24602C8.18152 6.23721 8.17977 6.22777 8.17993 6.21826V5.05493C8.17993 5.04553 8.1818 5.03622 8.18544 5.02755C8.18907 5.01888 8.1944 5.01102 8.2011 5.00443C8.2078 4.99784 8.21575 4.99265 8.22449 4.98917C8.23322 4.98568 8.24256 4.98397 8.25196 4.98413H8.26172ZM11.9238 8.71582H13.584C13.6035 8.71582 13.6194 8.72803 13.6194 8.74024V9.42261C13.6194 9.43482 13.6011 9.44824 13.584 9.44824H11.9141C11.897 9.44824 11.8787 9.43604 11.8787 9.42261V8.74024C11.8787 8.72681 11.8945 8.71582 11.9141 8.71582H11.9238ZM4.94751 1.32935H9.45191C9.49628 1.32966 9.53876 1.34734 9.57025 1.3786C9.60174 1.40987 9.61973 1.45222 9.62036 1.49658V3.27759C9.61973 3.32196 9.60174 3.36431 9.57025 3.39557C9.53876 3.42683 9.49628 3.44451 9.45191 3.44483H4.94751C4.90314 3.44451 4.86066 3.42683 4.82917 3.39557C4.79768 3.36431 4.77969 3.32196 4.77906 3.27759V1.49658C4.77938 1.45212 4.79727 1.40958 4.82882 1.37825C4.86038 1.34693 4.90305 1.32935 4.94751 1.32935ZM11.9141 7.2229H13.5742C13.5938 7.2229 13.6096 7.23633 13.6096 7.24854V7.93457C13.6096 7.94678 13.5913 7.96021 13.5742 7.96021H11.9141C11.897 7.96021 11.8787 7.948 11.8787 7.93457V7.24854C11.8787 7.23389 11.8945 7.2229 11.9141 7.2229ZM11.9141 5.73731H13.5742C13.5938 5.73731 13.6096 5.75073 13.6096 5.76294V6.44409C13.6096 6.4563 13.5913 6.46973 13.5742 6.46973H11.9141C11.897 6.46973 11.8787 6.45874 11.8787 6.44409V5.75684C11.8787 5.74219 11.8945 5.7312 11.9141 5.7312V5.73731ZM3.03711 6.94458C3.31119 6.94434 3.57918 7.02539 3.80719 7.17749C4.03519 7.32958 4.21296 7.54588 4.31802 7.79903C4.42307 8.05217 4.45068 8.33079 4.39736 8.59963C4.34404 8.86847 4.21218 9.11546 4.01846 9.30934C3.82474 9.50323 3.57787 9.63531 3.30908 9.68887C3.04029 9.74242 2.76165 9.71506 2.50841 9.61023C2.25517 9.5054 2.03871 9.32782 1.88642 9.09995C1.73412 8.87208 1.65283 8.60416 1.65283 8.33008C1.65283 7.96283 1.79864 7.61061 2.05821 7.35082C2.31777 7.09102 2.66987 6.9449 3.03711 6.94458Z" fill="#B2BBCC"/>
</g>
<defs>
<clipPath id="clip0_1_830">
<rect width="15" height="13.3606" fill="white"/>
</clipPath>
</defs>
</svg>
