<svg width="80" height="80" viewBox="0 0 80 80" fill="none" xmlns="http://www.w3.org/2000/svg">
<path id="Vector" fill-rule="evenodd" clip-rule="evenodd" d="M42.8572 0H37.1428V25.3012L27.6648 1.84233L22.3666 3.98294L32.0902 28.0496L13.736 9.6954L9.69544 13.736L27.2871 31.3276L4.48964 21.3672L2.20184 26.6036L26.3242 37.1428H0V42.8572H26.3242L2.20184 53.3964L4.48964 58.6328L27.287 48.6724L9.69544 66.264L13.736 70.3044L32.0902 51.9504L22.3666 76.0172L27.6648 78.1576L37.1428 54.6988V80H42.8572V54.6988L52.3352 78.1576L57.6332 76.0172L47.91 51.9504L66.264 70.3044L70.3044 66.264L52.7128 48.6724L75.5104 58.6328L77.798 53.3964L53.676 42.8572H80V37.1428H53.6756L77.798 26.6036L75.5104 21.3672L52.7128 31.3276L70.3044 13.736L66.264 9.6954L47.91 28.0495L57.6332 3.98294L52.3352 1.84233L42.8572 25.3012V0Z" fill="#F66742"/>
</svg>
