<svg width="15" height="15" viewBox="0 0 15 15" fill="none" xmlns="http://www.w3.org/2000/svg">
<g id="phone-call-icon 1" clip-path="url(#clip0_1_825)">
<g id="Group">
<path id="Vector" d="M4.13088 6.16453C4.63503 7.07849 5.21608 7.95565 5.97047 8.75552C6.72731 9.56029 7.66847 10.2927 8.88673 10.9184C8.97707 10.9625 9.06252 10.9625 9.13942 10.9318C9.25539 10.8877 9.37379 10.7908 9.48976 10.6742C9.58009 10.5834 9.6924 10.4387 9.80959 10.2804C10.2783 9.66089 10.8582 8.89169 11.6773 9.2769C11.6956 9.28549 11.709 9.29531 11.7273 9.30267L14.4592 10.8815C14.4678 10.8865 14.4776 10.895 14.4849 10.9C14.845 11.149 14.9939 11.533 14.9976 11.9685C14.9976 12.4114 14.8352 12.9094 14.5972 13.3302C14.2822 13.886 13.8184 14.254 13.2837 14.4969C12.7747 14.7325 12.2083 14.8588 11.6638 14.9398C10.8093 15.0661 10.0086 14.9852 9.18947 14.7325C8.38869 14.4834 7.5818 14.0724 6.70046 13.5253L6.63576 13.4836C6.23171 13.2296 5.79469 12.9585 5.36623 12.6383C3.79884 11.4483 2.20094 9.72959 1.15968 7.83788C0.286881 6.25041 -0.189194 4.53657 0.0708162 2.90371C0.214859 2.00815 0.596939 1.19356 1.26344 0.656228C1.8445 0.185139 2.62697 -0.0724873 3.64015 0.0182954C3.75612 0.026883 3.85988 0.0943566 3.91481 0.194954L5.66652 3.17115C5.92287 3.50484 5.95461 3.83608 5.81422 4.16731C5.69826 4.43843 5.46388 4.6887 5.14406 4.92179C5.05006 5.00276 4.93776 5.08495 4.81935 5.17083C4.42751 5.45667 3.98195 5.78668 4.13454 6.17434L4.13088 6.16453Z" fill="#B2BBCC"/>
</g>
</g>
<defs>
<clipPath id="clip0_1_825">
<rect width="15" height="15" fill="white"/>
</clipPath>
</defs>
</svg>
