<svg width="99" height="99" viewBox="0 0 99 99" fill="none" xmlns="http://www.w3.org/2000/svg">
<path id="Vector" d="M40.4 31.0254C40.4 28.2272 42.6726 25.9576 45.4769 25.9576C48.2811 25.9576 50.5537 28.2272 50.5537 31.0254V52.2618L64.6307 58.4366C67.195 59.5628 68.3582 62.5487 67.2296 65.1056C66.101 67.6624 63.1086 68.8231 60.5462 67.6988L43.6937 60.3059C41.7686 59.5858 40.4 57.7337 40.4 55.5618V31.0254ZM1.03672 32.5078C0.890847 32.0769 0.800635 31.6192 0.775682 31.1423L0.00791716 17.067C-0.136039 14.2803 2.0137 11.9054 4.80645 11.7637C7.59919 11.62 9.97927 13.7651 10.1213 16.5518L10.2633 19.1566C12.3551 16.4706 14.7232 14.0108 17.3287 11.8173C20.7779 8.91375 24.6954 6.43732 29.039 4.50482C41.4519 -1.02071 54.9223 -1.0073 66.6634 3.48015C78.2854 7.92356 88.2299 16.7472 93.8038 28.9206C93.9516 29.1849 94.0764 29.4645 94.1762 29.7556C99.5237 42.0248 99.4604 55.2918 95.015 66.8753C90.562 78.4722 81.7192 88.3951 69.5194 93.9551C68.7638 94.3778 67.9116 94.5987 67.0453 94.5967C64.2411 94.5967 61.9685 92.3291 61.9685 89.5309C61.9685 87.3283 63.3773 85.4552 65.3447 84.7581C66.8207 84.082 68.2354 83.3274 69.5847 82.498C69.7383 82.3716 69.9014 82.2529 70.0742 82.1418C72.2488 80.7398 74.3161 79.1348 76.1856 77.346C76.3084 77.2292 76.437 77.1181 76.5694 77.0166C80.535 73.0903 83.5715 68.3864 85.535 63.2727C89.1166 53.9454 89.1378 43.2659 84.7481 33.4482L84.7461 33.4425C80.3564 23.6249 72.387 16.5078 63.0529 12.9396C53.7054 9.36767 43.0028 9.3466 33.1638 13.7249C29.809 15.216 26.6816 17.1716 23.8739 19.5339C21.9814 21.1274 20.2654 22.8779 18.7395 24.7606L19.4017 24.6783C22.1829 24.3393 24.7146 26.3158 25.0543 29.091C25.3941 31.8662 23.4132 34.3925 20.632 34.7315L6.60878 36.4552C3.98686 36.7731 1.58759 35.036 1.03672 32.5078ZM54.4137 98.1936C58.4214 97.7454 60.3331 93.0358 57.765 89.9273C56.669 88.6001 55.0029 87.947 53.2946 88.1232C50.308 88.4583 47.3195 88.4526 44.3348 88.0983C42.5421 87.8857 40.7935 88.6192 39.6918 90.0461C37.3194 93.1929 39.2023 97.6631 43.1122 98.1572C46.8704 98.6054 50.6516 98.615 54.4137 98.1936ZM22.0255 90.4042C23.5457 91.4117 25.4363 91.5266 27.0774 90.7375C30.588 89.0023 30.9105 84.1471 27.6551 81.9733C25.1964 80.3549 22.8297 78.3419 20.8201 76.1968C18.9813 74.2433 15.9678 74.0422 13.8891 75.7391C13.3523 76.1782 12.9114 76.7226 12.5939 77.3386C12.2763 77.9545 12.0888 78.629 12.0429 79.3201C11.997 80.0113 12.0938 80.7045 12.3271 81.3569C12.5605 82.0092 12.9255 82.6069 13.3997 83.1128C15.9602 85.8325 18.9007 88.3492 22.0255 90.4042ZM2.09816 63.8089C2.65863 65.6169 4.15577 66.9346 6.01568 67.2909C9.76621 67.9861 12.9275 64.4486 11.7989 60.8135C10.9044 57.9406 10.3612 55.0179 10.1405 52.0167C9.87946 48.506 6.26136 46.3437 3.02715 47.7399C1.05592 48.6305 -0.1322 50.5726 0.011756 52.733C0.284313 56.4984 0.975301 60.2025 2.09816 63.8089Z" fill="white"/>
</svg>
