<svg width="116" height="93" viewBox="0 0 116 93" fill="none" xmlns="http://www.w3.org/2000/svg">
<path id="Vector" fill-rule="evenodd" clip-rule="evenodd" d="M98.0493 74.3444L97.5415 49.1267L66.6526 61.0985C63.8693 61.9185 61.1236 62.3096 58.4344 62.3222C55.5476 62.3348 52.7079 61.9185 49.9152 61.0985L20.4086 49.0006V74.5715C21.2548 87.8553 49.6614 91.9174 58.3779 92.4724C65.3644 92.9266 92.9623 88.0319 96.5918 80.3997C97.3723 78.7345 97.8612 76.7161 98.0493 74.3444ZM110.565 30.9735V61.7923H111.289C111.787 61.7923 112.191 62.3348 112.191 63.0034V71.2916C112.191 71.9475 111.787 72.5026 111.289 72.5026H110.565V75.4041C111.486 75.6312 112.191 76.7287 112.191 78.0281C112.191 79.4914 111.289 80.7025 110.198 80.7025H106.634C105.544 80.7025 104.641 79.504 104.641 78.0281C104.641 76.7287 105.346 75.6312 106.268 75.4041V72.5026H105.544C105.055 72.5026 104.641 71.9602 104.641 71.2916V63.0034C104.641 62.3348 105.045 61.7923 105.544 61.7923H106.268V32.7774L68.6743 48.4455C61.8665 50.6153 55.0587 50.7667 48.2509 48.4455L6.75536 31.8313L3.00356 30.3301C-1.66974 27.7692 -0.50377 21.7518 3.84983 20.3641L50.7803 1.56751C55.6229 -0.286915 60.456 -0.577064 65.2986 1.56751L111.383 20.137C116.395 21.777 117.382 27.9963 111.552 30.5572L110.565 30.9735Z" fill="white"/>
</svg>
