<svg width="99" height="100" viewBox="0 0 99 100" fill="none" xmlns="http://www.w3.org/2000/svg">
<path id="Vector" fill-rule="evenodd" clip-rule="evenodd" d="M69.9343 90.1322L74.2574 70.453L78.6339 76.3719C88.0628 72.9737 93.3555 67.3819 94.1472 58.7667C101.895 70.9077 97.1893 81.7963 87.3779 88.1699L91.8433 94.2005L69.9343 90.1322ZM0 70.0302L62.1599 14.2871L94.4763 43.2675L32.3164 99.0106L0 70.0302ZM37.7514 48.1175C43.0085 43.4031 51.5123 43.4031 56.7783 48.1175C62.0354 52.8319 62.0354 60.4579 56.7783 65.1802C51.5212 69.8946 43.0174 69.8946 37.7514 65.1802C32.4854 60.4579 32.4854 52.8319 37.7514 48.1175ZM15.3087 65.1244L56.636 28.0634C59.2689 30.4245 63.5564 30.4245 66.1805 28.0634L78.963 39.5183C76.33 41.8795 76.33 45.7244 78.963 48.0776L37.6357 85.1466C35.0028 82.7854 30.7152 82.7854 28.0912 85.1466L15.3087 73.6917C17.9417 71.3305 17.9417 67.4856 15.3087 65.1244ZM42.6438 5.05776L38.3207 24.737L33.9442 18.818C24.5153 22.2162 19.2226 27.8081 18.4309 36.4232C10.6832 24.2823 15.3888 13.3937 25.2002 7.0201L20.7437 0.989502L42.6438 5.05776Z" fill="white"/>
</svg>
