<svg width="88" height="103" viewBox="0 0 88 103" fill="none" xmlns="http://www.w3.org/2000/svg">
<path id="Vector" fill-rule="evenodd" clip-rule="evenodd" d="M84.1888 94.7955L73.2581 93.0637L67.8353 101.647C63.8983 105.956 61.3999 98.8698 60.3021 96.4018L49.7499 78.8079C52.1821 78.0633 55.1159 75.9132 58.1254 73.4954C64.1349 73.6042 69.7375 72.6839 73.8543 68.0491L85.9774 88.7552L87.0279 90.7463C87.8607 93.3314 87.4254 95.0381 84.1888 94.7955ZM43.7025 0.208554C45.7562 0.133259 47.3745 0.760715 49.0117 1.68098C51.0843 2.84387 53.4219 5.14454 56.3083 6.60024C60.3683 8.64993 67.8826 5.8222 71.7249 10.8753C73.9678 13.8202 74.0719 16.1292 74.2423 18.4131C74.4221 20.8728 74.9142 23.14 77.7628 26.4697C82.4853 31.9913 83.4695 35.664 81.0373 39.4873C79.3812 42.0975 75.889 43.5449 75.0846 45.2013C73.3622 48.7151 75.2644 51.3671 72.9174 55.4665C71.2801 58.311 68.7627 60.185 65.4031 61.1387C62.5734 61.9419 59.7342 60.779 57.4629 61.624C53.4787 63.1048 50.5449 66.5432 47.3745 67.4133C46.1537 67.7479 44.9328 67.9153 43.712 67.9069C42.4911 67.9153 41.2703 67.7479 40.0495 67.4133C36.8791 66.5432 33.9453 63.1048 29.961 61.624C27.6897 60.779 24.8506 61.9502 22.0209 61.1387C18.6612 60.185 16.1438 58.311 14.5066 55.4665C12.1501 51.3671 14.0523 48.7151 12.3394 45.2013C11.535 43.5449 8.04281 42.0975 6.38664 39.4873C3.93551 35.664 4.91975 31.9913 9.6422 26.4781C12.4908 23.1483 12.9829 20.8811 13.1627 18.4215C13.3331 16.1376 13.4372 13.8285 15.6801 10.8837C19.5319 5.83056 27.0462 8.6583 31.0967 6.60861C33.9832 5.15291 36.3207 2.85224 38.3933 1.68935C40.0211 0.760715 41.6489 0.124893 43.7025 0.208554ZM37.0305 30.1424L41.9706 34.3003L50.4692 26.6621C51.3114 25.9092 51.8414 25.3068 52.873 26.2438L56.2421 29.2891C57.3494 30.2595 57.2926 30.82 56.2516 31.7236L43.8918 42.4656C41.6962 44.3731 42.0747 44.4902 39.8413 42.5326L31.3522 35.07C30.8885 34.6266 30.9358 34.1748 31.4469 33.7314L35.3554 30.1508C35.9516 29.5986 36.4248 29.6321 37.0305 30.1424ZM43.7025 13.7867C56.3651 13.7867 66.6334 22.8639 66.6334 34.0577C66.6334 45.2515 56.3651 54.3287 43.7025 54.3287C31.0399 54.3287 20.7717 45.2515 20.7717 34.0577C20.7717 22.8555 31.0399 13.7867 43.7025 13.7867ZM3.20679 94.7955L14.147 93.0637L19.5698 101.647C23.5067 105.956 26.0052 98.8698 27.103 96.4018L37.6551 78.8079C35.2229 78.0633 32.2891 75.9132 29.2796 73.4954C23.2701 73.6042 17.6675 72.6839 13.5508 68.0491L1.41813 88.7552L0.367644 90.7463C-0.465173 93.3314 -0.0298371 95.0381 3.20679 94.7955Z" fill="white"/>
</svg>
