<svg width="96" height="20" viewBox="0 0 96 20" fill="none" xmlns="http://www.w3.org/2000/svg">
<g id="Star">
<path id="Star 1" d="M7.98755 6.58065L9.6 1.61803L11.2125 6.58065C11.3196 6.91027 11.6267 7.13344 11.9733 7.13344H17.1913L12.9698 10.2005C12.6895 10.4042 12.5721 10.7653 12.6792 11.0949L14.2917 16.0575L10.0702 12.9905C9.78984 12.7868 9.41016 12.7868 9.12977 12.9905L4.90832 16.0575L6.52077 11.0949C6.62787 10.7653 6.51054 10.4042 6.23015 10.2005L2.0087 7.13344H7.2267C7.57328 7.13344 7.88045 6.91027 7.98755 6.58065Z" fill="#FFD600" stroke="#FFD600" stroke-linejoin="round"/>
<path id="Star 2" d="M27.1876 6.58065L28.8 1.61803L30.4125 6.58065C30.5196 6.91027 30.8267 7.13344 31.1733 7.13344H36.3913L32.1699 10.2005C31.8895 10.4042 31.7721 10.7653 31.8792 11.0949L33.4917 16.0575L29.2702 12.9905C28.9899 12.7868 28.6102 12.7868 28.3298 12.9905L24.1083 16.0575L25.7208 11.0949C25.8279 10.7653 25.7106 10.4042 25.4302 10.2005L21.2087 7.13344H26.4267C26.7733 7.13344 27.0805 6.91027 27.1876 6.58065Z" fill="#FFD600" stroke="#FFD600" stroke-linejoin="round"/>
<path id="Star 3" d="M46.3876 6.58065L48 1.61803L49.6125 6.58065C49.7196 6.91027 50.0267 7.13344 50.3733 7.13344H55.5913L51.3699 10.2005C51.0895 10.4042 50.9722 10.7653 51.0793 11.0949L52.6917 16.0575L48.4703 12.9905C48.1899 12.7868 47.8102 12.7868 47.5298 12.9905L43.3083 16.0575L44.9208 11.0949C45.0279 10.7653 44.9106 10.4042 44.6302 10.2005L40.4087 7.13344H45.6267C45.9733 7.13344 46.2805 6.91027 46.3876 6.58065Z" fill="#FFD600" stroke="#FFD600" stroke-linejoin="round"/>
<path id="Star 4" d="M65.9875 6.58065L67.6 1.61803L69.2125 6.58065C69.3196 6.91027 69.6267 7.13344 69.9733 7.13344H75.1913L70.9698 10.2005C70.6895 10.4042 70.5721 10.7653 70.6792 11.0949L72.2917 16.0575L68.0702 12.9905C67.7898 12.7868 67.4102 12.7868 67.1298 12.9905L62.9083 16.0575L64.5208 11.0949C64.6279 10.7653 64.5105 10.4042 64.2302 10.2005L60.0087 7.13344H65.2267C65.5733 7.13344 65.8804 6.91027 65.9875 6.58065Z" fill="#FFD600" stroke="#FFD600" stroke-linejoin="round"/>
<path id="Star 5" d="M84.7875 6.58065L86.4 1.61803L88.0124 6.58065C88.1195 6.91027 88.4267 7.13344 88.7733 7.13344H93.9913L89.7698 10.2005C89.4894 10.4042 89.3721 10.7653 89.4792 11.0949L91.0917 16.0575L86.8702 12.9905C86.5898 12.7868 86.2102 12.7868 85.9298 12.9905L81.7083 16.0575L83.3208 11.0949C83.4279 10.7653 83.3105 10.4042 83.0301 10.2005L78.8087 7.13344H84.0267C84.3733 7.13344 84.6804 6.91027 84.7875 6.58065Z" fill="#FFD600" stroke="#FFD600" stroke-linejoin="round"/>
</g>
</svg>
