<svg width="17" height="16" viewBox="0 0 17 16" fill="none" xmlns="http://www.w3.org/2000/svg">
<g id="List &#226;&#134;&#146; Item &#226;&#134;&#146; Link &#226;&#134;&#146; SVG" clip-path="url(#clip0_1_853)">
<path id="Vector" d="M16.7762 2.41866C16.1812 2.70504 15.5472 2.89487 14.8862 2.98704C15.5662 2.54155 16.0852 1.8415 16.3292 0.997711C15.6952 1.41247 14.9952 1.70544 14.2492 1.86893C13.6472 1.16559 12.7892 0.72998 11.8532 0.72998C10.0372 0.72998 8.57524 2.34734 8.57524 4.33008C8.57524 4.61537 8.59725 4.88968 8.65125 5.15083C5.92424 5.00489 3.51125 3.57078 1.89025 1.38614C1.60725 1.92489 1.44125 2.54155 1.44125 3.20539C1.44125 4.45188 2.02625 5.55681 2.89825 6.19651C2.37125 6.18554 1.85425 6.01766 1.41625 5.75322C1.41625 5.76419 1.41625 5.77846 1.41625 5.79272C1.41625 7.54175 2.55324 8.99452 4.04425 9.32918C3.77725 9.40928 3.48625 9.44769 3.18425 9.44769C2.97425 9.44769 2.76225 9.43452 2.56325 9.38624C2.98825 10.8116 4.19425 11.8595 5.62825 11.8935C4.51225 12.8514 3.09525 13.4286 1.56125 13.4286C1.29225 13.4286 1.03425 13.4154 0.776245 13.3792C2.22925 14.4073 3.95125 14.9943 5.80825 14.9943C11.8442 14.9943 15.1442 9.50804 15.1442 4.75252C15.1442 4.59342 15.1392 4.43981 15.1322 4.28729C15.7832 3.78035 16.3302 3.14724 16.7762 2.41866Z" fill="#B2BBCC"/>
</g>
<defs>
<clipPath id="clip0_1_853">
<rect width="16" height="15" fill="white" transform="translate(0.776245 0.72998)"/>
</clipPath>
</defs>
</svg>
