<svg width="16" height="16" viewBox="0 0 16 16" fill="none" xmlns="http://www.w3.org/2000/svg">
<g id="List &#226;&#134;&#146; Item" clip-path="url(#clip0_1_667)">
<path id="Vector" d="M9.38667 8.10659C9.24444 7.96437 9.07556 7.91992 8.88 7.97326C8.68444 8.02659 8.56 8.14215 8.50667 8.31992C8.45333 8.4977 8.49778 8.6577 8.64 8.79992C9.06667 9.22659 9.39556 9.71548 9.62667 10.2666C9.85778 10.8177 9.97333 11.3955 9.97333 11.9999C9.97333 12.2133 9.78667 12.4355 9.41333 12.6666C9.04 12.8977 8.53333 13.0844 7.89333 13.2266C7.14667 13.4044 6.34667 13.4933 5.49333 13.4933C4.64 13.4933 3.84 13.4044 3.09333 13.2266C2.45333 13.0844 1.94667 12.8977 1.57333 12.6666C1.2 12.4355 1.01333 12.2133 1.01333 11.9999C1.01333 11.3955 1.12 10.8177 1.33333 10.2666C1.54667 9.71548 1.86667 9.22659 2.29333 8.79992C2.43556 8.69326 2.48 8.54215 2.42667 8.34659C2.37333 8.15104 2.25778 8.02659 2.08 7.97326C1.90222 7.91992 1.74222 7.96437 1.6 8.10659C1.10222 8.63993 0.711111 9.23548 0.426667 9.89326C0.142222 10.551 0 11.2533 0 11.9999C0 12.5333 0.266667 12.9866 0.8 13.3599C1.33333 13.7333 2.01778 14.0177 2.85333 14.2133C3.68889 14.4088 4.56889 14.5066 5.49333 14.5066C6.41778 14.5066 7.29778 14.4088 8.13333 14.2133C8.96889 14.0177 9.65333 13.7333 10.1867 13.3599C10.72 12.9866 10.9867 12.5333 10.9867 11.9999C10.9867 11.2533 10.8444 10.5421 10.56 9.86659C10.2756 9.19104 9.88444 8.60437 9.38667 8.10659ZM5.49333 8.47993C6.13333 8.47993 6.72 8.32881 7.25333 8.02659C7.78667 7.72437 8.21333 7.30659 8.53333 6.77326C8.85333 6.23993 9.01333 5.65326 9.01333 5.01326C9.01333 4.37326 8.85333 3.78659 8.53333 3.25326C8.21333 2.71992 7.78667 2.29326 7.25333 1.97326C6.72 1.65326 6.13333 1.49326 5.49333 1.49326C4.85333 1.49326 4.26667 1.65326 3.73333 1.97326C3.2 2.29326 2.77333 2.71992 2.45333 3.25326C2.13333 3.78659 1.97333 4.37326 1.97333 5.01326C1.97333 5.65326 2.13333 6.23993 2.45333 6.77326C2.77333 7.30659 3.2 7.72437 3.73333 8.02659C4.26667 8.32881 4.85333 8.47993 5.49333 8.47993ZM5.49333 2.50659C6.16889 2.50659 6.75556 2.74659 7.25333 3.22659C7.75111 3.70659 8 4.29326 8 4.98659C8 5.67992 7.75111 6.27548 7.25333 6.77326C6.75556 7.27104 6.16889 7.51993 5.49333 7.51993C4.81778 7.51993 4.23111 7.27104 3.73333 6.77326C3.23556 6.27548 2.98667 5.67992 2.98667 4.98659C2.98667 4.29326 3.23556 3.70659 3.73333 3.22659C4.23111 2.74659 4.81778 2.50659 5.49333 2.50659Z" fill="#1363DF"/>
</g>
<defs>
<clipPath id="clip0_1_667">
<rect width="16" height="16" fill="white" transform="matrix(1 0 0 -1 0 16)"/>
</clipPath>
</defs>
</svg>
