<svg width="16" height="16" viewBox="0 0 16 16" fill="none" xmlns="http://www.w3.org/2000/svg">
<g id="List &#226;&#134;&#146; Item &#226;&#134;&#146; Link &#226;&#134;&#146; SVG" clip-path="url(#clip0_1_855)">
<path id="Vector" d="M8.27812 0.72998H8.27437C4.13905 0.72998 0.776245 4.09373 0.776245 8.22998C0.776245 9.8706 1.305 11.3913 2.20406 12.6259L1.26937 15.4122L4.15219 14.4906C5.33812 15.2763 6.75281 15.73 8.27812 15.73C12.4134 15.73 15.7762 12.3653 15.7762 8.22998C15.7762 4.09467 12.4134 0.72998 8.27812 0.72998ZM12.6421 11.3209C12.4612 11.8319 11.7431 12.2556 11.1703 12.3794C10.7784 12.4628 10.2666 12.5294 8.54344 11.815C6.33937 10.9019 4.92 8.66217 4.80937 8.51685C4.70344 8.37154 3.91875 7.33092 3.91875 6.25467C3.91875 5.17842 4.46531 4.65436 4.68563 4.42936C4.86656 4.24467 5.16562 4.16029 5.4525 4.16029C5.54531 4.16029 5.62875 4.16498 5.70374 4.16873C5.92406 4.1781 6.03469 4.19123 6.18 4.53904C6.36094 4.97498 6.80156 6.05123 6.85405 6.16186C6.9075 6.27248 6.96094 6.42248 6.88594 6.56779C6.81563 6.71779 6.75375 6.78435 6.64312 6.91185C6.5325 7.03935 6.4275 7.13686 6.31686 7.27373C6.21561 7.39279 6.10124 7.52029 6.22874 7.74061C6.35625 7.95623 6.79688 8.67529 7.44562 9.25279C8.28281 9.9981 8.96155 10.2362 9.20436 10.3375C9.3853 10.4125 9.60093 10.3947 9.73312 10.254C9.90094 10.0731 10.1081 9.77311 10.3191 9.47779C10.4691 9.26592 10.6584 9.23967 10.8571 9.31467C11.0596 9.38498 12.1312 9.91467 12.3515 10.0244C12.5718 10.135 12.7171 10.1875 12.7706 10.2803C12.8231 10.3731 12.8231 10.8091 12.6421 11.3209Z" fill="#B2BBCC"/>
</g>
<defs>
<clipPath id="clip0_1_855">
<rect width="15" height="15" fill="white" transform="translate(0.776245 0.72998)"/>
</clipPath>
</defs>
</svg>
