<svg width="22" height="18" viewBox="0 0 22 18" fill="none" xmlns="http://www.w3.org/2000/svg">
<g id="List &#226;&#134;&#146; Item &#226;&#134;&#146; Link &#226;&#134;&#146; SVG" clip-path="url(#clip0_1_861)">
<path id="Vector" d="M20.8837 2.31601C20.3141 1.1609 19.6959 0.948434 18.4372 0.867636C17.1798 0.770379 14.018 0.72998 11.2788 0.72998C8.53443 0.72998 5.3713 0.77038 4.11525 0.86614C2.85919 0.948434 2.23969 1.15941 1.66481 2.31601C1.07812 3.46963 0.776245 5.45666 0.776245 8.95492C0.776245 8.95791 0.776245 8.95941 0.776245 8.95941C0.776245 8.9624 0.776245 8.9639 0.776245 8.9639V8.96689C0.776245 12.4502 1.07812 14.4522 1.66481 15.5938C2.23969 16.749 2.85787 16.9584 4.11394 17.0557C5.37131 17.1395 8.53443 17.1889 11.2788 17.1889C14.018 17.1889 17.1798 17.1395 18.4385 17.0572C19.6972 16.9599 20.3154 16.7504 20.885 15.5953C21.477 14.4537 21.7762 12.4517 21.7762 8.96838C21.7762 8.96838 21.7762 8.9639 21.7762 8.9609V8.95641C21.7762 5.45666 21.477 3.46963 20.8837 2.31601ZM8.65125 13.4482V4.47063L15.2137 8.95941L8.65125 13.4482Z" fill="#B2BBCC"/>
</g>
<defs>
<clipPath id="clip0_1_861">
<rect width="21" height="17" fill="white" transform="translate(0.776245 0.72998)"/>
</clipPath>
</defs>
</svg>
